<?xml version="1.0" encoding="utf-8"?>
<!-- Generator: Adobe Illustrator 15.0.0, SVG Export Plug-In . SVG Version: 6.00 Build 0)  -->
<!DOCTYPE svg PUBLIC "-//W3C//DTD SVG 1.1//EN" "http://www.w3.org/Graphics/SVG/1.1/DTD/svg11.dtd">
<svg version="1.1"
	 id="svg2600" xmlns:inkscape="http://www.inkscape.org/namespaces/inkscape" xmlns:cc="http://creativecommons.org/ns#" xmlns:sodipodi="http://sodipodi.sourceforge.net/DTD/sodipodi-0.dtd" xmlns:svg="http://www.w3.org/2000/svg" xmlns:rdf="http://www.w3.org/1999/02/22-rdf-syntax-ns#" xmlns:dc="http://purl.org/dc/elements/1.1/" inkscape:output_extension="org.inkscape.output.svg.inkscape" sodipodi:version="0.32" inkscape:version="0.47 r22583" sodipodi:docname="Taiwan_ROC_political_division_map_Taoyuan County.svg"
	 xmlns="http://www.w3.org/2000/svg" xmlns:xlink="http://www.w3.org/1999/xlink" x="0px" y="0px" width="850px" height="1200px"
	 viewBox="0 0 850 1200" enable-background="new 0 0 850 1200" xml:space="preserve">
<defs>
	
	
		<inkscape:perspective  id="perspective2608" inkscape:vp_x="0 : 526.18109 : 1" sodipodi:type="inkscape:persp3d" inkscape:vp_y="0 : 1000 : 0" inkscape:vp_z="744.09448 : 526.18109 : 1" inkscape:persp3d-origin="372.04724 : 350.78739 : 1">
		</inkscape:perspective>
	
		<inkscape:perspective  id="perspective4281" inkscape:vp_x="0 : 0.5 : 1" sodipodi:type="inkscape:persp3d" inkscape:vp_y="0 : 1000 : 0" inkscape:vp_z="1 : 0.5 : 1" inkscape:persp3d-origin="0.5 : 0.33333333 : 1">
		</inkscape:perspective>
	
		<inkscape:perspective  id="perspective3999" inkscape:vp_x="0 : 0.5 : 1" sodipodi:type="inkscape:persp3d" inkscape:vp_y="0 : 1000 : 0" inkscape:vp_z="1 : 0.5 : 1" inkscape:persp3d-origin="0.5 : 0.33333333 : 1">
		</inkscape:perspective>
	
		<inkscape:perspective  id="perspective3032" inkscape:vp_x="0 : 0.5 : 1" sodipodi:type="inkscape:persp3d" inkscape:vp_y="0 : 1000 : 0" inkscape:vp_z="1 : 0.5 : 1" inkscape:persp3d-origin="0.5 : 0.33333333 : 1">
		</inkscape:perspective>
	
		<inkscape:perspective  id="perspective3233" inkscape:vp_x="0 : 526.18109 : 1" sodipodi:type="inkscape:persp3d" inkscape:vp_y="0 : 1000 : 0" inkscape:vp_z="744.09448 : 526.18109 : 1" inkscape:persp3d-origin="372.04724 : 350.78739 : 1">
		</inkscape:perspective>
	
		<inkscape:perspective  id="perspective5378" inkscape:vp_x="0 : 0.5 : 1" sodipodi:type="inkscape:persp3d" inkscape:vp_y="0 : 1000 : 0" inkscape:vp_z="1 : 0.5 : 1" inkscape:persp3d-origin="0.5 : 0.33333333 : 1">
		</inkscape:perspective>
	
		<inkscape:perspective  id="perspective5400" inkscape:vp_x="0 : 0.5 : 1" sodipodi:type="inkscape:persp3d" inkscape:vp_y="0 : 1000 : 0" inkscape:vp_z="1 : 0.5 : 1" inkscape:persp3d-origin="0.5 : 0.33333333 : 1">
		</inkscape:perspective>
	
		<inkscape:perspective  id="perspective5400-9" inkscape:vp_x="0 : 0.5 : 1" sodipodi:type="inkscape:persp3d" inkscape:vp_y="0 : 1000 : 0" inkscape:vp_z="1 : 0.5 : 1" inkscape:persp3d-origin="0.5 : 0.33333333 : 1">
		</inkscape:perspective>
	
		<inkscape:perspective  id="perspective3831" inkscape:vp_x="0 : 0.5 : 1" sodipodi:type="inkscape:persp3d" inkscape:vp_y="0 : 1000 : 0" inkscape:vp_z="1 : 0.5 : 1" inkscape:persp3d-origin="0.5 : 0.33333333 : 1">
		</inkscape:perspective>
	
		<inkscape:perspective  id="perspective2614" inkscape:vp_x="0 : 526.18109 : 1" sodipodi:type="inkscape:persp3d" inkscape:vp_y="0 : 1000 : 0" inkscape:vp_z="744.09448 : 526.18109 : 1" inkscape:persp3d-origin="372.04724 : 350.78739 : 1">
		</inkscape:perspective>
</defs>
<sodipodi:namedview  id="base" inkscape:zoom="0.49497476" inkscape:cx="255.12293" inkscape:cy="774.76952" showgrid="false" objecttolerance="10" bordercolor="#666666" pagecolor="#ffffff" borderopacity="1.0" gridtolerance="10000" guidetolerance="10" inkscape:window-maximized="1" inkscape:window-y="-8" inkscape:window-x="-8" inkscape:window-height="750" inkscape:window-width="1280" inkscape:current-layer="layer1" inkscape:document-units="px" inkscape:pageshadow="2" inkscape:pageopacity="0.0">
	</sodipodi:namedview>
<defs>
	
	
		<inkscape:perspective  id="perspective2608" inkscape:vp_x="0 : 526.18109 : 1" sodipodi:type="inkscape:persp3d" inkscape:vp_y="0 : 1000 : 0" inkscape:vp_z="744.09448 : 526.18109 : 1" inkscape:persp3d-origin="372.04724 : 350.78739 : 1">
		</inkscape:perspective>
	
		<inkscape:perspective  id="perspective4281" inkscape:vp_x="0 : 0.5 : 1" sodipodi:type="inkscape:persp3d" inkscape:vp_y="0 : 1000 : 0" inkscape:vp_z="1 : 0.5 : 1" inkscape:persp3d-origin="0.5 : 0.33333333 : 1">
		</inkscape:perspective>
	
		<inkscape:perspective  id="perspective3999" inkscape:vp_x="0 : 0.5 : 1" sodipodi:type="inkscape:persp3d" inkscape:vp_y="0 : 1000 : 0" inkscape:vp_z="1 : 0.5 : 1" inkscape:persp3d-origin="0.5 : 0.33333333 : 1">
		</inkscape:perspective>
	
		<inkscape:perspective  id="perspective3032" inkscape:vp_x="0 : 0.5 : 1" sodipodi:type="inkscape:persp3d" inkscape:vp_y="0 : 1000 : 0" inkscape:vp_z="1 : 0.5 : 1" inkscape:persp3d-origin="0.5 : 0.33333333 : 1">
		</inkscape:perspective>
	
		<inkscape:perspective  id="perspective3233" inkscape:vp_x="0 : 526.18109 : 1" sodipodi:type="inkscape:persp3d" inkscape:vp_y="0 : 1000 : 0" inkscape:vp_z="744.09448 : 526.18109 : 1" inkscape:persp3d-origin="372.04724 : 350.78739 : 1">
		</inkscape:perspective>
	
		<inkscape:perspective  id="perspective5378" inkscape:vp_x="0 : 0.5 : 1" sodipodi:type="inkscape:persp3d" inkscape:vp_y="0 : 1000 : 0" inkscape:vp_z="1 : 0.5 : 1" inkscape:persp3d-origin="0.5 : 0.33333333 : 1">
		</inkscape:perspective>
	
		<inkscape:perspective  id="perspective5400" inkscape:vp_x="0 : 0.5 : 1" sodipodi:type="inkscape:persp3d" inkscape:vp_y="0 : 1000 : 0" inkscape:vp_z="1 : 0.5 : 1" inkscape:persp3d-origin="0.5 : 0.33333333 : 1">
		</inkscape:perspective>
	
		<inkscape:perspective  id="perspective5400-9" inkscape:vp_x="0 : 0.5 : 1" sodipodi:type="inkscape:persp3d" inkscape:vp_y="0 : 1000 : 0" inkscape:vp_z="1 : 0.5 : 1" inkscape:persp3d-origin="0.5 : 0.33333333 : 1">
		</inkscape:perspective>
	
		<inkscape:perspective  id="perspective3831" inkscape:vp_x="0 : 0.5 : 1" sodipodi:type="inkscape:persp3d" inkscape:vp_y="0 : 1000 : 0" inkscape:vp_z="1 : 0.5 : 1" inkscape:persp3d-origin="0.5 : 0.33333333 : 1">
		</inkscape:perspective>
	
		<inkscape:perspective  id="perspective2614" inkscape:vp_x="0 : 526.18109 : 1" sodipodi:type="inkscape:persp3d" inkscape:vp_y="0 : 1000 : 0" inkscape:vp_z="744.09448 : 526.18109 : 1" inkscape:persp3d-origin="372.04724 : 350.78739 : 1">
		</inkscape:perspective>
</defs>
<sodipodi:namedview  id="base" inkscape:zoom="0.49497476" inkscape:cx="255.12293" inkscape:cy="774.76952" showgrid="false" objecttolerance="10" bordercolor="#666666" pagecolor="#ffffff" borderopacity="1.0" gridtolerance="10000" guidetolerance="10" inkscape:window-maximized="1" inkscape:window-y="-8" inkscape:window-x="-8" inkscape:window-height="750" inkscape:window-width="1280" inkscape:current-layer="layer1" inkscape:document-units="px" inkscape:pageshadow="2" inkscape:pageopacity="0.0">
	</sodipodi:namedview>
<path id="path2462_1_" fill="#EEFFAA" d="M333.568,1008.143l-3.532,6.215l0.982,0.895l1.25,0.355l2.679-0.805l0.535-1.07
	l3.036-3.215l2.854-1.785l0.447-0.98l-0.269-1.072l-1.071-0.535l-0.446-0.893l-0.893-0.717l-1.25,0.092l-2.054,0.98l-0.717,0.803
	l-0.893,0.447l-0.535,0.895L333.568,1008.143L333.568,1008.143L333.568,1008.143z"/>
<g id="g2924_1_">
	<path id="path2464_1_" fill="#EEFFAA" d="M96.553,590.071v1.429V590.071L96.553,590.071z"/>
	<path id="path2466_1_" fill="#EEFFAA" d="M114.41,583.642l0.715-2.5l1.964-0.714l-0.894,1.429l-0.535,2.321L114.41,583.642
		L114.41,583.642z"/>
	<path id="path2468_1_" fill="#EEFFAA" d="M123.16,576.678l2.32-0.357l-0.535,1.786L123.16,576.678L123.16,576.678z"/>
	<path id="path2470_1_" fill="#EEFFAA" d="M80.66,624.358l-0.18,2.5l2.145-0.895L80.66,624.358L80.66,624.358z"/>
	<path id="path2472_1_" fill="#EEFFAA" d="M84.41,630.608l-4.285,2.32l-1.607-0.715l0.357,2.32l5.355-0.355l4.107-2.5l-0.357-1.25
		l-2.5-0.357L84.41,630.608L84.41,630.608z"/>
	<path id="path2474_1_" fill="#EEFFAA" d="M77.447,585.25l-0.625,1.16l-0.179,0.806l0.804,0.894l-1.519,1.428l0.357,1.072
		l1.07,0.535l0.805,0.715l0.356,0.803l-0.893,0.447l-0.715,2.145l0.445,1.158l-1.16,0.357h-1.34l-1.07,0.715l0.356,0.981
		l1.429,0.269l1.785,2.321v1.34l-0.535,1.07l-0.981,0.715l-0.714,0.893l-0.982,0.715l-0.981,0.27l-1.785-1.607l-1.25,0.447
		l-0.895,0.715l-0.625,0.98l-1.518,1.34l-0.625,0.893l0.893,0.537h1.34l0.625-0.805h4.019l0.714-0.625l0.894-0.445l2.59,0.445
		l1.16,0.535h1.34l1.16-0.535l-0.445-1.16l-0.715-0.893l-0.357-0.982l-0.089-1.25l1.518-1.43l-1.16-2.856l3.66-3.304l-0.355-0.896
		l-0.982-0.714l-0.179-1.161l0.625-2.143l-0.536-1.16l-0.625-0.804l-0.268-1.071l0.356-0.98l0.982-0.625h2.678l2.322-0.625
		l0.98-0.625l0.18-1.342l-0.715-0.625L87,584.267l-1.072,0.268l-1.25-0.625l-2.143-2.409l0.268-1.16l-0.356-0.981l-1.07,0.089
		l-0.805,0.714l-2.231,4.107L77.447,585.25L77.447,585.25L77.447,585.25z"/>
	<path id="path2476_1_" fill="#EEFFAA" d="M92.268,574.803l-0.981,0.979l0.09,1.161L94.41,579l0.625,1.071l0.625-0.625l0.893-2.054
		l0.894-0.625l2.769,0.09l0.536,1.16v1.34l0.714,0.803l0.446,0.982l2.231,2.321l0.446,1.25l0.893,0.179l0.805-0.982l0.179-1.339
		l2.231-1.25l1.34-0.179l-0.09-1.16l-1.25-1.161l-0.535-0.804l0.804-1.429l-1.429-0.091l-1.696-3.125l-0.714-0.179l-0.805,0.536
		l-2.144-0.625l-0.268-1.072l-1.34-0.178l-1.25,0.535l-0.535,1.07l-1.34,0.27l-2.32-0.27l-1.072-0.534l-0.268-0.625L92.268,574.803
		L92.268,574.803L92.268,574.803z"/>
	<path id="path2478_1_" fill="#EEFFAA" d="M104.5,586.232l-1.43,1.875l1.785,1.696h1.34l0.981-0.625l0.09-1.25l1.696-2.056
		l-0.804-0.534h-1.34l-1.25,0.269L104.5,586.232L104.5,586.232z"/>
	<path id="path2480_1_" fill="#EEFFAA" d="M107.803,590.16l-1.16,0.536l-0.356,0.982l0.356,1.069l1.071,0.535h1.339l1.25-0.268
		l0.357-1.16l-0.625-0.894l-1.16-0.625L107.803,590.16L107.803,590.16L107.803,590.16z"/>
	
		<path id="path2482_1_" sodipodi:nodetypes="csssssssssssssssssssssssssssssssssssssssssssssssssssscsssscsssssssssssssssssssssssssssssssssssssssssssssssssssssssssssssssssssssssssscsssssssssssssssssssssssc" fill="#EEFFAA" d="
		M100.75,599l-2.947,2.5l-1.16,0.357h-1.34l0.625,1.16v1.34l-0.268,1.25l-1.785,1.518l-0.18,1.34L94.678,609l2.411-1.07l0.981-0.715
		l1.43,0.09l0.893,0.625l0.804,0.893l-2.679,2.857l-1.34,0.18L94.5,611.41l1.518,1.697L98.072,614l1.606-0.18l1.161-0.713
		l4.018,0.088l0.805,1.072l0.445,1.16l-1.339,2.143l-0.179,0.715l1.161,0.805l-0.09,0.98l-1.071,1.072l-1.161-0.09l-0.803-0.715
		l-1.072-0.535l-1.339,0.18l-1.607,3.393l-1.518,1.607l0.625,1.07l2.589,0.268l1.429-0.178l1.786-0.625l1.519-0.09l1.606,1.785
		l1.16-0.27l0.179-1.16l1.071-0.98l0.09-1.25l0.446-1.25l-1.071-0.625l-0.179-0.982l0.893-0.98l0.625-1.16l4.465-3.482l1.16-0.178
		l2.232-2.77l0.356-1.07l0.981-0.805l6.161-0.18l1.875-0.893l0.804,0.625l0.269,1.34l0.625,1.16l1.07,0.715l1.25-0.27l0.982-0.535
		h1.429l0.535-0.805l-3.125-3.303l-0.803-2.947l0.355-1.07v-1.34l-0.535-1.16l-2.408-2.587l-0.625-2.055l-0.715,0.805l-0.356,2.5
		l-1.25-0.18l-0.625-1.25l-0.804-0.893l0.356-0.806l0.714-0.534l-1.695-1.606l-1.16-0.447l-0.805,0.806l-1.695,3.125l-0.982-0.181
		L117,598.553l-1.52,1.518l-0.268,1.072l-0.714,0.178l-0.09-4.017l0.981-2.146l-1.518,0.181l-0.805,0.536l-5.179,0.893l-0.804,0.625
		l0.089,1.25l0.715,0.982v1.338l-0.536,0.895l-1.25,0.355l-0.804,0.98v2.77l-0.714,0.805l-1.339-0.625l-0.982-0.893l0.179-1.787
		l-1.429-0.18l-0.179-1.25l0.714-1.158l0.09-0.806L100.75,599L100.75,599L100.75,599z"/>
	<path id="path2484_1_" fill="#EEFFAA" d="M90.482,611.768l-0.535,1.34l-0.981,0.445l-0.357,1.16l0.09,2.59l1.519,0.715l0.446,0.715
		l0.893,0.803l0.357-0.893l-0.715-0.893l1.16-1.072l-0.714-0.803l-0.268-2.857l-0.895-0.715"/>
	<path id="path2486_1_" fill="#EEFFAA" d="M92.803,619.893v1.428l4.375,0.09l0.536-0.803L97,619.715l-1.072-0.805l-0.535-0.803
		l-0.268,0.98L92.803,619.893L92.803,619.893L92.803,619.893z"/>
	<path id="path2488_1_" fill="#EEFFAA" d="M107.925,548.396l-1.895,3.156l0.38,1.642l1.263,0.505l1.136-1.768l1.263-1.01
		l1.643,0.252l1.263-0.631l1.137-1.139l-4.167-2.902l-1.01,0.127L107.925,548.396L107.925,548.396L107.925,548.396z"/>
	<path id="path2490_1_" fill="#EEFFAA" d="M20.8,657.871l-1.39,3.156l1.39,0.885l1.642-0.379l1.39-0.885v-1.262l-2.273-1.77
		L20.8,657.871L20.8,657.871z"/>
	<path id="path2492_1_" fill="#EEFFAA" d="M72.318,662.924l0.885,1.895v8.713l-0.38,1.643l-1.516,0.631l0.885,1.264l5.557,0.125
		l0.379-0.883l-0.632-1.389l0.632-1.266l1.642-0.504l1.264,1.389l1.263,0.885l1.515-0.504l0.884-1.012h1.896l1.136-0.758
		l-0.505-1.643l-0.758-1.264l-1.642,0.631l-2.023,2.273l-4.546-2.65l-0.505-1.391v-3.789l-1.012,0.254l-1.894-0.127L72.318,662.924
		L72.318,662.924L72.318,662.924z"/>
	<path id="path2494_1_" fill="#EEFFAA" d="M82.293,703.328l0.252,1.896l1.642,0.125l-1.01-1.389L82.293,703.328L82.293,703.328z"/>
	<path id="path2496_1_" fill="#EEFFAA" d="M85.828,706.106l-0.506,2.021l-1.011,1.389l1.643-0.504l1.768-2.273L85.828,706.106
		L85.828,706.106z"/>
	<path id="path2498_1_" fill="#EEFFAA" d="M125.351,707.621l-0.884,1.896l0.757,1.137v1.391l1.137,1.137l0.759-0.127v-1.896
		l1.263-1.389l0.631-1.262l-1.01-0.885l-1.896-0.127l-0.757,0.127l0,0V707.621z"/>
	<path id="path2500_1_" fill="#EEFFAA" d="M53.756,720.375l-3.157,1.139l-0.379,1.514l0.379,1.77l1.137,0.885v1.895l1.769,2.398
		l0.632,0.252l0.126-1.768l1.516-1.012l1.516-0.379l0.379-3.662l1.263-1.137l-2.524-2.021L53.756,720.375L53.756,720.375
		L53.756,720.375z"/>
</g>
<path id="path2523_1_" fill="#EEFFAA" d="M806.445,190.928l1.518,0.884l1.264-0.126l0.252-1.644l1.768-0.127l1.77,0.254l0.506,1.643
	l1.641,1.01l-0.631,1.012l-1.643,0.631l-3.66-0.126l-2.021-1.896L806.445,190.928L806.445,190.928z"/>
<path id="path2525_1_" fill="#EEFFAA" d="M668.34,901.321V904l2.318,1.607l0.715,2.5v2.678l1.072,1.25l2.5,0.357l2.5,3.035
	l2.5,0.715l1.785-0.357L679.947,914l-0.18-2.143l2.855-4.107v-2.68l-0.533-2.32l-1.607-1.25l-2.68,0.18l-2.32-1.07l-5.18,0.895
	L668.34,901.321L668.34,901.321L668.34,901.321z"/>
<path id="path2527_1_" sodipodi:nodetypes="csssssssssssc" fill="#EEFFAA" d="M698.158,1115.965l1.432,1.965l1.605,1.43h2.678
	l2.5,0.535l1.25-0.357l0.717-1.965l1.25-1.605l0.355-2.32l-2.322-1.072l-1.605-1.605l-1.965-0.535l-4.285-3.75l-0.715-1.965
	l0.18-2.5l2.5-0.18l-0.18-2.143l-1.43-1.43l-0.355-2.32l1.25-1.43l-1.07-1.605l-9.822,0.178l-1.965,0.713h-5.355l-1.607-1.07
	l-1.605,0.355v1.785l1.965,1.25v7.857l1.068,1.605l2.5,0.895l5,6.25h5.357l2.143,1.43L698.158,1115.965L698.158,1115.965
	L698.158,1115.965z"/>
<path id="path2907_1_" sodipodi:nodetypes="csssssssssssssssssssssssssssssssssssssssssssssssssssssssscssssssssssssssssssssssssssssssssssssssssssssssscsssssssssssssssssssssssssssssscsssssssssscsssssssssssssssssssssscsssssssssssssscssssssssssssssscssssssssssssssssssscssssscssssssssssssssssssssssscsssssssssssssscsssssssssscssssssssssssssscssssssscssssssc" fill="#EEFFAA" d="
	M270.256,691.135l-0.2-1.654l-1.625-0.625h-3.781l-0.406-1.5l0.156-5.063l3-6.938l1.406,0.125l3.655-1.531l1.281-5.031l1-1.654
	l-0.25-3.531l-0.625-0.875l-1.406,1.25l-1.25-1l-0.78-1.531l-0.125-1.875l1.03-3.156v-1.654l-1.53-0.375l0.125-1.75l2.155-4.189
	h-1.655l-1.625-0.875l-0.375-2.029l0.75-1.5v-2.031l0.875-1.125l0.5-1.781l0.78-1.375v-1.906l-1.405-0.625l-5.688,0.375l-1.75-0.625
	l-0.875-1.529l0.375-9.096l1.566-0.873l3.854,0.131l5.81,2.271h3.788l1.516,2.273h3.788l2.777-1.264l6.313,2.271l3.788,0.506
	l2.273-1.77l1.768-2.271l0.252-3.535l-0.758-3.031l2.021-2.02h3.283v3.283l3.535,1.262l1.011-2.777l4.798-2.777l0.758-3.533
	l1.769-2.021l6.313-2.523l2.778,1.514l1.769-6.061l1.516-2.525l4.041,0.254l2.524-1.263l1.011-3.031l5.809-1.769l1.012-2.776
	l2.271-1.771l1.769-2.271l2.777,1.263l2.271,1.77l2.777,1.011l5.809-2.273h7.576l5.305-2.775l5.051,1.263l1.517,5.051l4.293,3.535
	l1.516,2.272l2.524,1.515l3.535,0.254l2.272,1.768l3.029,1.012l13.891,1.516l2.777-1.516l1.769-2.021l5.556,0.252l-0.505,3.789
	l2.021,3.283l2.021-2.021l3.283-0.76l2.021,2.021l3.029-0.252l2.777-1.01l3.535,0.252l2.777,1.516l3.535,0.504l1.264-2.523v-3.535
	l-0.758-3.03l-1.516-2.273l1.643-2.396l6.438-0.632l11.617,4.293h3.789l3.281,0.758l1.264,2.525l0.252,8.588l-0.758,3.279
	l-2.777,2.273v3.789l1.516,2.523l2.273,2.021l0.504,7.322l2.525,5.809l2.02,2.273l11.365,1.262l5.555-2.271l11.111,1.012l2.777,1.01
	l8.539,0.221l-1.217,0.285l-2.523,1.262l-6.564,1.012l-2.273,1.516l-6.313,1.264l-4.293,3.535l-1.518,2.525l-2.775,1.262
	l-2.273,1.77l-3.281,0.506l-2.273,2.523l-1.768,4.293l-1.77,1.518l-1.01,2.775l-1.77,2.021l-0.252,3.535l-2.777,1.01h-3.787
	l-2.021,2.021l-1.516,2.525l-4.041,4.041l-7.07,0.504l-2.271,5.811l-5.051,2.523l-1.012,2.777l-6.564,0.506l-1.264,6.564
	l-8.08-0.252l-2.273-2.021l-7.828-0.252l-1.263,11.617l1.263,2.775l2.021,2.525v3.787l-2.021,1.768l-2.524-1.262l-6.313,1.262
	l-3.03-1.01l-3.535-2.525l-3.788,5.559l-3.029,0.758l-3.283-0.254l-4.293-3.029l-6.062-1.768l-1.012-2.525l3.283-4.799l-0.758-2.525
	l-2.021-3.281l-0.506-2.525l1.264-2.525l-1.011-2.775l-0.253-3.535l1.517-2.779l2.271-1.768l0.253-3.029l-1.01-2.779l-3.536-0.252
	l-3.788-1.262l-1.01-2.273l2.524-1.768l-0.254-3.283l-7.827-0.506v-3.283l2.524-1.768l1.516-2.271l-2.021-1.768l-2.271,1.262
	l-3.029-0.758l-2.525-2.021l-3.283-1.01l-1.768-2.271l-3.788-1.012l-0.253,0.506l-2.271,1.518l-3.283,0.252l-2.021-2.021
	l-3.281,0.506l-5.305,2.525h-7.576l-6.061,3.535l-0.253,0.252l-1.518,2.525l-6.313-0.252l0.252,3.027l-7.071,0.506l-0.505,3.283
	l-1.263,2.525l-1.769,1.516l-2.524-1.516l-2.021,2.02l1.01,2.779l-0.505,1.77l-9.596,4.797l-0.758,3.029l-3.283,4.801l-3.03,1.262
	l-4.546-1.262l-1.263-2.021v2.76l-2.525-0.252l-2.271-2.021l-1.011-3.029l-3.788-0.758L270.256,691.135L270.256,691.135
	L270.256,691.135z"/>
<path id="path2421_1_" sodipodi:nodetypes="cssssssssssssssssssssssssssssssssssc" fill="#EEFFAA" d="M343.073,632.328l0.505,3.283
	l3.032,3.031l-2.021,4.547l10.101,1.516l1.01,2.777l2.021,2.777l2.524,1.264l2.524-1.516l1.263-2.525l4.545-3.537l2.021,1.77
	l4.546,1.516l0.758-2.525l3.536-4.293l-2.02-2.02l-0.76-3.031l-3.028-0.758l-1.265-2.525l-2.271-1.516l-2.777,1.012l-2.021-1.77
	l-1.77-2.525l-2.523-1.262l-3.031,0.758l-7.069,5.051l-3.028-0.758L343.073,632.328L343.073,632.328L343.073,632.328z"/>
<path id="path2792_1_" fill="#EEFFAA" d="M415.625,324.531l-1.75,0.438l-0.25,2.281l-9.094,12.625l-1.906,4.656l0.25,3.813
	l-0.125,0.5l-1.25,1.625l-0.531,1.406l-2.75,1.25l-1.031,1.75l-4.656,3.156l0.125,1.375l0.5,1.156l0.125,2.125l-0.875,1.031
	L390,362.937l2.781,1.281l0.5,1.25l-1,1.406l-0.906,0.75l-2.25-2.906l-0.906,0.5l-1.125,1.25l-2.156,1.156l0.125,1.75l-0.75,1.281
	l-2.781,1.625l-0.875,1.406l4.156,5.688L384.688,381l-0.875,1.281l-0.375,1.5l-1.031-1.906l0.156-1.625l-1.531,1.625l-1.5-0.125
	l-0.375-1.875l0.875-1.781l-0.125-1.75l-1.25,1.25l-2.25,6.438l1.625,1.281l0.625,1.375l0.625,0.5l0.125-0.25l1.75,1.125v1.906
	l-0.625,1.531l-3.875,5.656l-1.156,0.906l-1.5,3.781l0.094,2.031l4.438,1.969l2.156,3.406l0.344,2.313l1.063,2.688l0.375,2.688
	l3.188,3.375l-1.25,1.625l-0.156,2.5l1.25,1.594l1.781,1.25h0.531l1.438,2.313l1.969,0.906l1.594,1.25l2.156,0.531l1.938,1.063
	l10.188,2.344h2.5l1.625,1.25l0.344,0.875v5.375l1.594,2.125l1.781,1.438v2.844l-0.875,1.969l1.438,6.969l2.5,0.188l1.594,1.438
	l3.563-0.375l1.094-0.719l5.687,4.844l8.938,3.219l2.156-0.563h5.344l2.5,0.563l1.781,1.594l2.156-0.188l4.281-1.438l6.438-6.938
	l3.75-9.844l3.219-3.219l4.438-1.25l1.25-1.594l-0.344-6.594l3.75-7.5l1.625-1.094l2.313,0.719l1.063,1.625l4.656,0.875l1.594,1.438
	v5.344l1.063,0.563l0.719-1.625l1.438-1.25l0.906-1.781l1.063-4.281l1.594,1.438l0.375,0.531l2.844,1.406l2.5,0.375l2.5-0.531
	l6.063-5.188l2.344-0.344l1.406,1.25l2.344,0.531l5.156-0.188l1.781-1.063l2.688-2.688l1.969-6.25l1.438-1.438l2.5-0.531
	l4.281,0.531l1.594-1.063h4.125l3.906-1.969l1.25-1.969l1.969-1.25l1.25-1.594l1.781-1.063l1.25-1.969l0.563-2.156l1.781-0.875
	l10.531-0.188l1.438-1.25l1.25-1.969l0.688-1.969l2.5-0.188l1.25-1.594l1.625-1.063l1.969,0.875l1.25,1.438l4.281,1.25l0.875-1.781
	l1.813-1.063h2.656l4.125-1.813l1.594,1.094l2.5,0.875l1.969-0.719l1.25-2.125l0.531-2.156l2.313-3.75h0.906l3.219,2.344
	l1.063,1.594l4.656,1.063h2.656l1.094-1.594l4.813,0.531l1.25,1.25l6.438,1.781l1.781-1.438l0.875-1.781l-0.156-2.5l3.75-1.594
	l1.063-1.625l2.688,0.188l1.406-1.25l0.563-2.313l-0.906-4.656l1.25-1.969l2.313-0.875l1.625-1.063l1.781-4.125l1.438-1.594h2.656
	l1.781-1.25l1.438-1.781l2.156-4.313L658,354.25l0.875-1.969l2.313-1.25l1.25-1.438l-1.25-2.125l-1.594-1.063l-1.063-1.781
	l-2.156-1.094l-7.125,0.906l-1.813,0.906l-2.313,0.344l-1.594,1.25l-1.25,1.594l-2.688,0.375L637.812,348l-4.125-6.969h-4.813
	l-1.969-0.719l-2.656-2.656l0.875-7.156l-0.531-2.125l-0.906-1.813l-1.25-1.406l-0.375-0.219l-1.719,0.906l-0.656,1.375l-1.25,0.75
	l-5.813-0.125l-1.25,0.656l-6.531-0.25l-0.063,0.813L603,329.969l-1.969,1.594l-1.438,1.813l-0.188,2.5l-3.375,5.531v2.656
	l-2.156,0.563h-2.688l-1.781-2.5l0.906-1.438l-2.688-1.063l-1.969,0.875l-0.719,2.156l-1.25,1.781l-2.313,0.719l-4.813,6.781
	l-1.969,0.719h-5.344l-1.813,1.25l-0.688,1.969l-0.719,0.156l-1.969,2.156l-0.375,2.5l-2.125,0.531l-3.406,2.844l-2.125,0.563
	l-5-0.563l-4.469,1.625l-5.375,6.781l-2.656,0.188l-1.969-1.094l-3.219-3.031l-0.375-2.5l-1.781-1.25l-2.656-3.906l-1.625,0.344
	h-2.688l-1.938-0.906l-5-0.344l-6.094-2.156l-4.813-0.156l-2.156,0.875l-1.406,1.438v2.688l0.875,1.969l0.375,5l-0.906,1.938
	L501.375,373l-2.156,0.719l-10.344-0.344l-1.969,0.875h-5.344l-5.188-1.594l-3.219-3.031l-1.063-1.969l-1.625-1.25l-11.25-2.156
	l-3.375-2.844l-2.5-0.719l-1.438-1.969l-3.563-1.969l-1.438-1.594l-2.125-0.719l-1.25-1.594l-0.906-0.375l-3.031-0.344l-1.25-1.781
	l-3.219-2.156l-7.5-9.656h-0.344l-0.906-1.781l-4.468-1.781l-2.313-3.75l-0.375-1.969L415.625,324.531z"/>
<path id="path3635_1_" sodipodi:nodetypes="ccssssssssscssssssssssssssssssssssssssscssssssssssssssssssssssssssscssssssssssssssssssssssscsss" fill="#EEFFAA" d="
	M766.922,99.073l0.074-1.158l-1.066-1.123l0.5-3.406l-1.779,0.125l-2.375,1.5l-2.156-2l-1.906-0.155l-0.875-0.625v-2.125
	l-1.625-0.406l-0.779,1.406l-1.5,0.375l-0.375-1.5h-1.281l0.5,1.5l1.406,2.03l-1.781,2.25l-2.781,2.031l-1.25,0.125l2.281-2.156
	l-0.781-1.375v-3.155l-1.5-0.125l-1.375-0.75l-1.781-0.25l-2.031-2.031h-3.904l-1.125-0.75l0.258-1.358l-0.428-0.9l-1.809,1.152
	l-1.967,0.715l-1.07,1.606l-2.32,0.535l-1.25,1.607l-4.107,1.785l-2.5,0.18l-1.963,0.714l-1.787,1.25l-4.82,0.536v2.678l1.07,1.965
	l2.322,0.714l1.428,1.607l0.18,2.5l3.037,6.786l2.32,1.605l1.605,2.145l2.322,0.535l1.428-1.25v1.965l1.605,1.785l6.967,1.785
	l5.355,4.644l5.178,0.356l4.645-2.32l2.5-0.18l1.072-1.785l0.713-2.144l-4.643-4.465v-4.821l-0.537-2.143l2.322-0.536l2.855-3.035
	l2.5,0.535l1.787,1.25l0.893,0.179l1.785-2.855l1.43-1.43l0.889-2.145l0,0H766.922z"/>
<path id="path2861_1_" sodipodi:nodetypes="csssssssssscssssscssssssssssscssscsssssssscssssssssssssssssscssssscssssssscscsssssssssssssssssssssssccssssssssssssssssssssssscssssssssscssscssssssssscsssssssssssscsssssssssscsssssssssscsssssssssssssssssssssssssssssssscssssssssscsssssssssssssssssscsssssssssssssssssscsssssssssscssssssssssssscssssssssssssssscsssssssssssssssssssssssssssssssssssscsssssssssssssssssssscsssssssssssssssssssssssssssssssssssssscsssssssssssssssssssssssssssssssssssssssssssssssssssssssssssssssssssssssssscsssssssc" fill="#EEFFAA" d="
	M495.203,1042.666l-3.029,1.012l-2.021,1.768l-3.281,1.262l-2.777-4.797l-3.029-0.758h-4.041l-1.264-2.777l-2.777-1.012
	l-2.273-1.514l-4.293,0.252l-0.504-2.273l0.758-3.281l1.77-1.012l-2.779-1.01l-1.01-2.525l-4.799-2.775l1.77-2.273l2.525-1.264
	l-0.254-7.576l-2.525-1.514l-1.262-2.525h-2.777l-3.789-4.041l-3.535-1.77l4.799-14.646l6.564-1.01l1.264-2.777l-0.758-3.283
	l-2.777-2.02l-2.523-5.305l-4.041-2.525l-0.252-3.029l-1.012-3.029l4.293-3.283v-3.787l-4.039-8.082l-0.506-4.293l-1.77-1.012
	l-1.01-3.029l0.504-3.535l2.777-5.051l-1.262-2.777l1.516-2.271l1.01-2.777l-0.252-3.535l1.01-2.525l2.021-2.021l0.758-3.029
	l1.768-2.021l0.254-1.01l4.041-5.557l0.252-3.535l1.77-2.271l0.252-2.525l3.283,0.506l3.535-1.768l6.061-1.264l3.031-6.314
	l11.111-0.506l2.02-2.271l0.252-3.535l1.77-2.021l0.506-9.85l2.02-2.021l-1.01-2.271v-3.789l-1.012-3.281l-2.523-1.264l-3.283-0.252
	l-2.777-2.525l-0.758-1.516l-1.012-8.334l-3.787-2.523l-2.271,0.756l-0.254-1.262l-2.523-1.264l-1.01-0.252h-3.283l-1.516,2.271
	l-5.051,2.523l-1.77,2.273l-2.777,1.516l-2.777-1.516l-6.314-7.576l-8.586-5.305h-3.787l-3.029,0.758l-3.283,4.799l-3.029,0.758
	l-1.012,1.012h-2.777l-2.777-1.264v-3.789l-1.769-2.02l-3.03-1.264l-3.029,0.758l-2.778,2.02l-3.534,0.254l-6.565,4.547
	l-1.264,0.504l-4.041,3.283l-0.252,1.264l-2.524,3.281l-2.272,1.77l-3.535,0.252l-6.062-1.516l-2.777,1.264h-3.788l-1.517-2.271
	l-4.545-0.252l-1.769-0.76l-2.524,1.264l-1.517,9.85l-1.264,2.525l-0.505,3.281l-1.263,2.777l0.252,15.152l-0.757,1.264l0.252,4.545
	l-1.769,6.818l-1.769,2.271l-2.021,6.063l-0.253,18.184l3.535,4.293l-2.777,16.414l-1.264,2.777l-2.462,2.207l-0.188,1.84
	l-0.75,1.125l-0.125,3.781l-0.5,1.279l0.75,1.75l0.125,9.096l2.906,0.25l2,1.904l-0.125,1.781l-0.875,0.25l1.78,2.375l5.031,3.689
	l0.905,1.25l1.375,0.625l0.625,0.125l-0.155-0.031l0.155,0.406l3.031,1.279l1.155,1.25l1.5,1.031l2.906,1l1.125,1l1.53,0.75l1,0.906
	l1.656,0.75l1.125,1l9.594,5.188l1.125,1.375l1.656,0.531l10.844,8.689l0.906,1.279l2,5.406l-0.375,0.781l5.438,3.656l5.813,7.313
	l0.5,1.531v4.779l1.78,2.906l0.75,3.406l-0.125,1.779l-0.5,1.5l0.125,1.531l4.03,3.406l0.875,1.25l1.281,1.031l0.75,1.25l1,3.531
	l3.281,3.404l-0.875,1.781v1.906l0.375,1.75l1.156,1.25l1.625,4.938l0.125,5.563l1,3.281v1.906l0.654,1.25l0.5,2.154l1.25,1.125
	l0.75,1.25l0.281,1.781l1.375,1.375l0.25,3.564l0.75,1.25l-0.125,1.904l-0.75,1.25l-5.188,1.5l0.25,1.656l1.781,0.375l0.5,1.281
	l-0.125,0.625l0.375,1.625l0.625,1.281l-0.625,1.25l-0.875,1l-2.531,1.529l-0.25,1.625l1,1.156l-3.779,3.531v3.656l1.529,0.875
	v1.904l1.25,1.125l-0.375,1.531l3.906,3.406l0.375,1.375l1.281,1.281l0.75,1.25l0.5,2.529l-0.875,3.031l0.125,5.939l-1.125,2.654
	l0.875,1.125l1.75,0.25l0.906,3.281l1,1.656l3.904,0.375l1.531-2.406l1.125-0.875l0.25-1.656l-0.75-3.154l0.625-1.375l1.406-0.625
	l2-2.156l1.281-0.625h1.875l0.5,1.375l4.188,2.906l0.5,0.125l2.281-0.125l1.625,0.375l0.625,1.279l1.531,0.375l1.375,0.875
	l1.904,0.625l1.906,0.125l3.781,3.814l0.125,1.75l1.875,0.625l0.906,0.781l0.625,1.25l0.125,1.75l2.654,2.529h1.875l1.281-0.875
	l-0.25-1.654l-1.031-0.875l-0.375-1.625l0.125-1.781l-0.5-1.375l-4.904-7.469v-7.314l0.5-1.406l-0.625-1.375l0.5-3.029l1-0.375
	l0.125-1.656l3.404-0.5l1.656-0.625l0.625-1.25l1.5-0.375l1.281-1.031l0.5-1.5l0.125-1.781l0.875-1l1.781-0.125l0.375-3.404
	l3.654-2.406l0.375-1.406l-2-2.5l-0.125-9.344l-1.154-1.656v-1.906l2.654-4.469l1-1.063v-1.529l-1.5-0.625l-2.029-2.156
	l-0.625-1.625l-0.25-4.813l0.25-0.689l0.875-0.063l0.5-0.625l0.719-0.5l0.313-0.719l-0.875-1.375l0.063-3.656l-0.844-1.281
	l0.25-0.625l0.531-0.563l0.313-0.625l0.188-0.75l-0.188-0.781v-1.875l-0.313-0.969l-0.406-0.563l0.063-1.125l-0.625-0.814
	l-0.313-0.844l0.188-1.625l1.406-1.156l0.375-0.625l0.189-0.688l0.063-1.844l-0.25-0.813v-0.688l0.188-0.5l-0.875-1.031l0.75-3.281
	l1-1.125l0.5-1.375l-1-1.156l-0.16-0.912"/>
<path id="path3699" fill="#EEFFAA" d="M825.625,136.24l-1.406,0.125l-1.125,1.031l-1.154-2.156l-1.375-0.5l-0.875-1l-1.471-0.342
	l-1.813,0.062l-0.84,0.847l-1.689,1.061l-4.031-0.375l-4.938-4.03l-0.375-1.405v-5.688l-0.625-0.75l1.375-1l-0.25-0.625
	l-4.156-4.188l-1.281-3.031l1.531-4.531l1.5-1.031l0.375-1.5l-0.625-1.25l-1-0.905l-0.625-0.875l0.75-1.25l1.25-0.781v-1.875
	l-1.75-0.125l-1.656,0.375l-1,1l-3.404,1.156h-1.906l-5.939-1.281l-1.5,0.625l-1.404-0.625l-4.406-0.125l-2.906-0.875l-1.375,0.75
	l-1.281,1.25h-1.625l-1.029-1.25l0.375-1.625l0.779-1.281l0.625-0.625h-1.904l-1.625,0.625l-1.813-0.001l0.021,1.157l-0.895,2.144
	l-1.43,1.43l-1.783,2.855l-0.895-0.179l-1.785-1.25l-2.5-0.535l-2.857,3.035l-2.32,0.536l0.535,2.143v4.821l4.645,4.465
	l-0.715,2.144l-1.072,1.785l-2.5,0.18l-4.643,2.32l-5.18-0.356l-5.355-4.644l-6.965-1.785l-1.607-1.785v-1.965l-1.428,1.25
	l-2.322-0.535l-1.605-2.145l-2.32-1.605l-3.035-6.786l-0.18-2.5l-1.43-1.607l-2.32-0.714l-1.07-1.965v-2.678l4.82-0.536l1.785-1.25
	l1.965-0.714l2.5-0.18l4.107-1.785l1.25-1.607l2.32-0.535l1.07-1.606l1.965-0.715l1.484-1.112l-2.914-2.094l-1.529-0.5l-1.625-1.125
	l-0.531-1.28l0.656-1.5l2.904-1.406l-0.279-0.75l-1.125-1l1-1.125l1.404-0.781l1.25-1.125l-0.375-1.125l-4.529,3.906l-6.314,0.375
	l-4.938-5.063l-0.25-1.25l1.25-1.28l-0.625-1.25h-2l-1.406-0.625l-2.029-2.031l0.529-3.781l-0.375-1.781l-0.654-1.25l-1.125-1
	l-3.656-5.188l-3.156-1l-1.781-2.281l-1.375-0.75h-1.904l-1.375-0.906l-1.031-1.125l-1.25-0.75l-0.438-0.094l-1.344,0.219l-1,1.125
	l-0.5,1.531h-6.064l-1.906-2.031l-1.125,0.75v1.908l-1.125,0.75l-5.063,0.75l-0.625-1.625l-0.625,0.625l-0.25,1.781l-1.404,1.125
	l-3.406,0.875l-1.375,1.031l-1.656,0.5l-3.531,7.438l-0.625,0.125l-3.688-0.5l-1.25,1l-0.125,1.781l-1,1.125l-0.375,1.531
	l-1.281,2.53l-0.25,1.875L658.195,72l-1.281,0.75l-2.125,2.156l-0.25,1.875l-2.029,3.906l-1.906,0.53l-1.125-0.125l0.25,1.125
	l3.406,3.156l1.904,0.125l3.531,1.656l1.5,2.625l1.406,1.031l1,1.25l2.156,4.438l0.25,7.563l-0.875,0.75l-0.25-1.625l-0.781-1.656
	l-0.25-1.625l-2-2.656l-0.125-1.781l-0.656-1.75l-2.25-2.28l-5.813-3.781h-1.906l-1.125,1l-0.625,2.406l-3.688,3.53l-1.625,0.5
	l-2.781,1.656l-1.5,0.375l-4.188,2.781l-5.156,1.625l-1.279,0.875l-12,0.125l-2.406,2.281l-0.957,1.395l1.814,2.485l1.25,0.356
	l1.25,1.606l5,0.536l9.285,4.464l-0.535,3.572l1.965,1.784l5.18,1.25h5.355l1.25,0.894l1.785,2.145l0.537,2.32v0.714l-0.895,1.786
	l0.355,2.321l1.25,1.429l2.32,1.607l-0.893,1.604l-1.965,1.25l-1.965,0.716l2.145,1.605l0.178,2.145l-1.605,1.07l-2.145,0.714
	l-1.963,3.571l-2.857,1.965l-11.25-0.356l-1.785,0.894l-0.535,2.145l1.07,1.964l-0.535,5l-1.428,1.43l-0.895,1.964l1.25,2.322
	l2.145,0.178l1.605,1.25l-2.145,1.43l-1.25,1.43l-0.893,1.965l0.893,4.285l4.465,2.679l3.395,5.18l-1.25,1.606l0.355,2.144
	l0.18,0.179l2.5,1.605l-1.605,1.25l-4.645,0.895l-0.18,2.144l2.5,0.356l1.605-1.25l1.607,1.605l1.785,1.072l2.855,0.714l2.68-0.179
	l1.965-1.071l5.355-0.356l1.25,0.715l0.357,0.894l1.43,1.43l0.713,1.964l2.857,2.856l1.607,0.894l1.605,1.786l0.178,2.5l0.895,2.5
	l2.322,0.714v2.68l-1.607,1.07l-1.07,1.606l-3.215,2.68l-1.072,1.964l0.357,2.32l0.893,1.786v1.071l1.967,5l3.213,3.035
	l-0.535,1.965l2.5,1.07l0.18,1.786l2.5,0.714l1.43,1.965l1.965,1.43l0.535,5l1.477,0.619l4.773,0.272l2.32-1.43l4.645-0.714
	l5.178-3.395l0.535-2.5l5.895-3.215l2.68-0.179l2.143-0.714l1.072-1.607l1.605-1.25l2.32-0.355l1.43-4.285v-2.68l-0.715-2.145
	l-1.43-1.428l-0.355-2.5l1.965-1.607l0.355-2.32l-0.178-2.5l0.893-1.965l2.145-0.535l1.785-1.07l2.5,0.714l2.32-1.786l0.535-2.143
	l-1.428-1.25l10.533-1.25l3.572-1.785l1.605,1.785l0.715-1.965l2.145-0.715l1.07-1.785l1.785-1.606l0.535-1.695l4.82-2.591
	l2.68-3.214l1.965-1.07l2.322-0.356l7.5,1.07l1.783-0.894l2.5-0.536l-0.178-1.25l0.178-2.143l1.43-1.785l0.18-2.145l-0.535-2.32
	l2.5-3.215l3.035-2.5l2.32-0.356l5.357,0.356l5.893-3.93l1.43-4.285l-4.107-5.894l0.895-1.786l0.535-2.143l1.787-1.431l5.178,0.357
	l2.322,0.893h2.855l1.428-1.604l6.787-4.822l5.355-0.355l6.25-2.32l2.5-0.18l3.707,0.69l1.121-0.502l0.775-1.536l1.756-0.119
	l0.75-1.125l2.779-1.28l0.775-1.317l1.881-0.183l0.688-1.439l0.063-1.467L825.625,136.24z M724.789,135.34l-6.785-0.357
	l-2.145,0.536l-1.605,1.07l-5-0.357l-1.787,1.071l-1.25,1.965v2.32l1.25,4.106l-0.178,2.145l0.355,2.5l4.82,2.32l-0.178,1.785
	h-2.857l-2.143,0.895l-10-1.07l-3.75-2.5l-1.072-4.286l-2.5-0.179l-2.32-1.607l-1.25-2.143v-2.681l-0.715-1.964l-1.605-1.25
	l-2.857-1.25l-1.25,0.18l-1.25,1.784l-1.963,1.071l-2.145,0.179l-1.07-2.143l-0.535-5.179l0.895-1.965l1.783-1.606l2.68-3.75
	l-0.18-8.214l-1.428-2.68l-3.572-3.393l-5.715-0.714l-1.785-1.25l-0.715-2.321l0.357-2.321l1.785-1.07v-2.68l1.25-1.429l0.355-0.715
	l1.25-1.25l1.25-2.678l2.322-0.709l0.893-2.321l3.035-3.571l1.965-0.893l2.5-0.18l1.607-1.07l0.893-2.322l3.75-2.143l0.895-1.965
	l1.965-0.894l2.5-3.928l1.428,1.606l1.967,3.571l4.643-0.356v2.68l-0.715,1.964v2.679l2.855,2.858l0.18,5.178l1.07,1.607l2.859,2.5
	l0.535,1.785l-1.43,1.606l-0.535,2.322l7.68,6.605l0.535,4.645l-2.322,4.82l-1.07,1.25l1.43,1.43l0.355,1.964l-1.25,1.606
	l0.895,1.965l4.818,3.57l3.932,1.785l2.318-0.715l1.607,0.715L724.789,135.34z"/>
<path id="path2531_1_" fill="#EEFFAA" d="M671.39,94.427l-1.25,2.678l-1.25,1.25l-0.355,0.715l-1.25,1.429v2.68l-1.785,1.07
	l-0.357,2.321l0.715,2.321l1.785,1.25l5.715,0.714l3.572,3.393l1.428,2.68l0.18,8.214l-2.68,3.75l-1.783,1.606l-0.895,1.965
	l0.535,5.179l1.07,2.143l2.145-0.179l1.963-1.071l1.25-1.784l1.25-0.18l2.857,1.25l1.605,1.25l0.715,1.964v2.681l1.25,2.143
	l2.32,1.607l2.5,0.179l1.072,4.286l3.75,2.5l10,1.07l2.143-0.895h2.857l0.178-1.785l-4.82-2.32l-0.355-2.5l0.178-2.145l-1.25-4.106
	v-2.32l1.25-1.965l1.787-1.071l5,0.357l1.605-1.07l2.145-0.536l6.785,0.357l0.535-1.43l-1.607-0.715l-2.318,0.715l-3.932-1.785
	l-4.818-3.57l-0.895-1.965l1.25-1.606l-0.355-1.964l-1.43-1.43l1.07-1.25l2.322-4.82l-0.535-4.645l-7.68-6.605l0.535-2.322
	l1.43-1.606l-0.535-1.785l-2.859-2.5l-1.07-1.607l-0.18-5.178l-2.855-2.858v-2.679l0.715-1.964v-2.68l-4.643,0.356l-1.967-3.571
	l-1.428-1.606l-2.5,3.928l-1.965,0.894l-0.895,1.965l-3.75,2.143l-0.893,2.322l-1.607,1.07l-2.5,0.18l-1.965,0.893l-3.035,3.571
	l-0.893,2.321L671.39,94.427L671.39,94.427L671.39,94.427z"/>
<path id="path3690_1_" sodipodi:nodetypes="csssssssssssssssssssssssscsssssscsssssssssssssscsssssssssssssssssscsssssssssssssssssssssssssssscsssssssssssssssssssssssssssssssssssssscsssscsssssssssssssssssssssssssssssssssssssssssssssssssssssssssssssssssssssssssssssssssssscsssssssssssscssssssssssssscsssssssssssscssssssssssssssscsssssssssssssssssssssssssssssssssssscssssssssssssssssssssssssscssssssssssssssssssssssssscssssssssssssssscssssssssssssssssssssssssssssssc" fill="#EEFFAA" d="
	M669.797,248.286l-0.469,1.157l-1.641,0.505l-3.535,0.253l-1.264,0.758l-1.77,2.398l-0.631,5.051l-2.271,3.03l-0.379,1.516
	l-0.633,1.264l-0.379,1.517l-3.408,5.303l-0.254,1.643h-1.768l-1.389,0.633l-1.139,0.884l-0.389,0.711l-0.855,0.921l0.107,0.642
	l1.137,0.759l0.631,1.389l0.129,1.769l0.504,1.391l-1.264,1.136l-0.504,0.253l-0.506,0.759l-1.264,0.758l-1.391,1.516l-0.379,1.643
	l0.633,1.263l0.125,7.323l-0.758,1.77l-1.135,1.389l-1.391,1.011l-1.643,2.524l-1.77,1.391l-0.504,1.264l-1.391-0.127l-3.408,4.925
	l-1.264,0.758l-1.895-0.379l-1.391,2.776l-1.389,0.759l-1.137,2.903l-0.885,1.138l-1.516,1.263l-1.264,2.525l0.098,1.565
	l-0.691,1.019l1.439,1.688l0.895,1.786l0.535,2.144l-0.893,7.145l2.678,2.679l1.965,0.715h4.82l4.107,6.964l1.785,0.895l2.68-0.356
	l1.25-1.606l1.605-1.25l2.32-0.356l1.787-0.894l7.143-0.894l2.145,1.07l1.07,1.786l1.605,1.071l1.275,2.109l12.021,7.7h8.082
	l3.029,1.263l4.041,0.505l8.082,5.557l8.334,1.011l3.029-0.758l-3.029-2.524l0.756-3.029l3.283-0.759l2.271-1.516l2.273,1.011
	l2.02-1.77l-0.758-1.516l-2.02-1.768l0.254-3.283l2.02-0.758l4.293,3.787l4.799,1.517l4.547,3.535l9.092,3.788l7.322,0.505
	l8.08,4.041l4.131,0.499l-0.227-4.042l-0.75-1.25l0.125-3.656l2.531-4.813l0.375-1.5l1.531-2.53l0.5-10.875l0.5-1.625l0.875-1.156
	v-2.125l1-3.53l1.779-2.406l0.5-1.78l2.656-1.625l1-1.156l1.281-2.625l0.125-1.78l4.531-4.281l4.563-1.905h1.875l0.531-0.25
	l-1.406-0.75l-1-1.031l-0.75-1.25v-1.905l-2.531-1.5l-0.5-4.938l1.75-1.125l0.875-1.281l3.281-0.625l2.781-1.75l1.656-0.375
	l0.5-1.655l-0.125-1.5l-0.625-1.78l-0.125-1.781l-0.75-1.125l-0.281-3.531l0.781-1.125l-0.906-1.405l0.656-1.5h1.875l-0.25-1.405
	l-1-0.875l-0.25-0.5l1.5-0.656l-1.25,0.281l-1.781-0.656l-0.125-1.25l-2.406-2.156l0.406-1.625l1.75-0.125l1.531,0.875l0.25,1.781
	l1.75-0.125l1.529-0.781l-3.654-3.655l-3.031-1l-0.406-0.75l-0.5-0.155l-1.625-2.25l-0.125-1.281l-3.656-9.094l-0.125-3.781
	l-0.779-1.125l0.375-0.625v-2.031l-0.5-1.655l0.5-10.22l-2.906-3.155l-0.875-1.5v-1.655l-1.375-1.625l-0.625-3.406l0.125-1.781
	l-1.031-1l0.5-14.03l0.656-2.155v-1.875l1.25-2.781l-0.25-3.656l1-3.03l0.125-1.78l2.406-5.156l0.25-1.781l1.279-2.155l1.5-0.75
	l1-2.905l0.906-1.125l1.375-0.5l3.781-4.438l1.281-0.625l3.154-3.655l0.25-3.53l0.5-1.531l2.781-1.625l1.5-0.375l1.531-2.156
	l1.182-0.944l1.227-0.586l2.5-3.53l0.281-1.875l1.75-1.031l1.779-0.25l1.248-0.505l1.127-1.12l1.656-0.25l1.25-0.781l1.906-0.125
	l2.703-1.237l-3.629-0.712l-2.5,0.18l-6.25,2.32l-5.355,0.355l-6.785,4.822l-1.43,1.604H786.9l-2.322-0.893l-5.178-0.357
	l-1.787,1.43l-0.535,2.144l-0.893,1.786l4.105,5.893l-1.43,4.286l-5.893,3.93l-5.357-0.356l-2.32,0.356l-3.035,2.5l-2.5,3.215
	l0.535,2.319l-0.18,2.146l-1.428,1.785l-0.18,2.143l0.18,1.25l-2.5,0.536l-1.785,0.893l-7.5-1.069l-2.322,0.355l-1.965,1.071
	l-2.678,3.214l-4.822,2.59l-0.535,1.696l-1.785,1.606l-1.07,1.784l-2.145,0.716l-0.715,1.965l-1.605-1.785l-3.57,1.785l-10.535,1.25
	l1.428,1.25l-0.535,2.143l-2.32,1.786l-2.5-0.714l-1.785,1.07l-2.145,0.534l-0.893,1.966l0.178,2.5l-0.355,2.32l-1.965,1.607
	l0.355,2.5l1.43,1.428l0.715,2.145v2.68l-1.43,4.285l-2.32,0.355l-1.605,1.25l-1.072,1.607l-2.143,0.714l-2.68,0.179l-5.895,3.214
	l-0.535,2.5l-5.178,3.396l-4.645,0.714l-2.32,1.429L669.797,248.286L669.797,248.286L669.797,248.286z"/>
<path id="path2707_1_" sodipodi:nodetypes="csssssssssssssssssssssssscssssssssssssssssscssssssssssscssssssssssssssssssssssssssssssssssscssssssssssssssssscssssssssssssssscsssssssssssssssssssssssssssscssscssssssssssssssssssssssssssssssssscssssssssssssssssssssssssssssscsssscssssssssssssssssscssssssssssssssssscsssssssssssssssssscssssssssssssssssssssssscsssssssssssssssssssssssssssssssc" fill="#EEFFAA" d="
	M669.875,248.269l-0.547,1.174l-1.641,0.505l-3.535,0.253l-1.264,0.758l-1.77,2.398l-0.631,5.051l-2.271,3.03l-0.379,1.516
	l-0.633,1.264l-0.379,1.517l-3.408,5.303l-0.254,1.643h-1.768l-1.389,0.633l-1.139,0.884l-1.516,1.939l-0.758,0.458l-1.77,0.379
	l-3.66-0.505l-1.516-0.885l-1.264-1.895h-0.885l-0.758-1.011l-0.506-1.517l-1.389-0.505v-3.914l0.758-1.389l0.379-1.77l-1.516-0.758
	l-1.643-0.253l-1.264-0.758l-0.125-3.788l1.01-1.01l0.125-1.896l0.506-1.515l-0.252-1.896l-1.643-0.758h-1.896l-0.631-1.263
	l-0.252-1.77l-0.758-1.264l-1.137-0.884l-2.273-2.904l-2.902-1.389l-3.031,1.01l-1.389-0.505v-3.788l1.137-1.136l0.633-1.264v-3.788
	l-2.146-0.379l0.127-4.42l0.506-1.39l0.883-1.263l0.381-1.644l-1.264-1.263l-0.633-1.516l-1.768-0.379l-1.264-1.264l-1.391-0.506
	l-1.768-0.126l-0.506-0.758h-0.252l-1.643-0.884l-1.012-1.265l-1.516-0.884l-0.379-0.631l-0.127-1.137l-0.883-2.399l-1.516-0.631
	l-2.146-0.379V207l-1.516-0.506l-3.914,1.77h-1.643l-5.684-4.545l-1.389-0.633l-1.137-1.138l-2.021-0.757v-1.39l-1.896-0.252
	l-1.768-0.634l-3.535-2.775l-0.633-0.886l-3.029-1.895l0.379-1.642l1.77-2.778l-0.506-5.556l-1.391-1.012l-11.742-1.01l-0.758-1.516
	l-0.254-1.896l1.012-0.884l-1.389-0.757l-1.264,0.884l-1.643,0.631l-1.895,0.126l-1.643-1.263l-2.021-0.631h-1.895l-1.264-1.39
	l-3.029-1.138l0.125-3.662l0.633-1.515l-1.139-3.031l-0.125-1.768l-1.77-0.126l-2.145-2.146l-3.66-0.253l-4.295,1.264l-2.271-1.516
	l-4.293,2.525l-3.104-0.835l0.461-0.795l1.25-1.031l3.031-4.031l0.625-1.375l1.281-1.281l1.25-0.75l1.781-1.904v-3.656l-0.906-1.25
	l0.125-1.781l3.031-3.781l1.029-2.904l1.125-0.875l2.406-3.531l4.656-4.063l3.938-1.75l1.625-0.25l1.156-1.154l1.5-0.5l2.531-1.625
	l1.25-1.406l1.656-1l1.75-0.5l2.779-2.156l1.531-0.625h2l12.125-3.156l1.531-1.28l3.531-1.625l3.654-3.656l1.656-1.031l2.125-0.125
	l8.344-3.406h1.906l1-1l3.531-0.75l1.531,0.5l2.5,2l2.352,0.077l0.785,1.874l1.25,1.429l1.25,0.357l1.25,1.606l5,0.535l9.287,4.465
	l-0.537,3.571l1.965,1.785l5.182,1.25h5.354l1.25,0.895l1.787,2.144l0.535,2.321v0.714l-0.895,1.786l0.357,2.32l1.25,1.43
	l2.32,1.605l-0.895,1.606l-1.965,1.25l-1.963,0.715l2.143,1.606l0.18,2.144l-1.607,1.071l-2.143,0.714l-1.963,3.571l-2.857,1.965
	l-11.25-0.357l-1.787,0.895l-0.535,2.144l1.072,1.964l-0.537,5l-1.428,1.43l-0.895,1.965l1.25,2.32l2.145,0.18l1.605,1.25
	l-2.143,1.429l-1.25,1.429l-0.895,1.966l0.895,4.284l4.463,2.681l3.396,5.179l-1.25,1.606l0.354,2.144l2.68,1.785l-1.605,1.25
	l-4.645,0.894l-0.18,2.145l2.5,0.355l1.607-1.25l1.605,1.606l1.785,1.071l2.857,0.715l2.68-0.181l1.963-1.069l5.357-0.357
	l1.25,0.715l0.355,0.895l1.43,1.429l0.715,1.964l2.855,2.857l1.607,0.893l1.605,1.786l0.18,2.5l0.893,2.5l2.322,0.714v2.679
	l-1.607,1.071l-1.068,1.607l-3.217,2.679l-1.07,1.964l0.355,2.321l0.895,1.786v1.069l1.965,5l3.215,3.036l-0.537,1.964l2.5,1.071
	l0.18,1.786l2.5,0.714l1.43,1.965l1.965,1.43l0.535,5L669.875,248.269L669.875,248.269L669.875,248.269z"/>
<path id="path2732_1_" sodipodi:nodetypes="csssssssssssscsssssssssssssssscsssssssssssssssssscssssssssssssssssssscssssssscscsssssssssssssssssscc" fill="#EEFFAA" d="
	M492.095,228.441l0.203,1.052l1.264,0.631h2.02l1.393-0.505l1.135-0.884l1.391,0.505l1.895,2.271l0.506,1.643v1.517l4.869,1.258
	l0.686-0.5l2.021-2.398l0.379-3.662l1.264-2.903l1.643-0.378l1.01-1.517l1.516-0.632l1.139-0.885l0.504-1.516l0.885-1.39l5.43-1.264
	l-0.504-1.39l1.135-1.768l1.518-0.506h1.895l7.07,7.196l1.516-1.011v-3.788l-3.281-11.11l-1.895-2.65l-3.41-2.904l-3.662-0.379
	l-0.125-0.631l-0.506-1.011l-1.389-0.885h-1.896l-7.701-1.895l-1.895-2.652l-0.506-1.389L508,190.954l-1.027,0.771l-1.531,0.625
	l-5.063,6.969l-1.25,1.125l0.625,3.031l-0.25,1l0.5,0.53l1.906,0.125l0.25,1.625l-0.75,1.53l-0.375,3.531l-0.781,1.125l-0.125,3.906
	l-1.875,2.53l-0.5,1.53l1.375,1.125l-0.75,1l-0.625,1.781l-2.281,2.156l-1.779,1L492.095,228.441L492.095,228.441L492.095,228.441z"
	/>
<path id="path2726_1_" sodipodi:nodetypes="cssssssssssscssssssssssssssssssssssssssssssssssssssssssscsssssssssssscsssssssssssssssssssssssssssssssssssssssssssssssssssscsssssssssssssssscsssssssssssssssssscssssssssssssssssssscsssssssscssssssssssscssscsssssssssssssssssssssssssssscssssssssssssssscssssssssssssssssscssssssssssssssssssssssssssssssssssscssssssssssscssssssssssssssssscsssssscsssssssssssssscssssssssssssssssssc" fill="#EEFFAA" d="
	M622.031,324.936l-1.693,0.898l-0.633,1.39l-1.262,0.758l-5.811-0.126l-1.264,0.631l-5.682-0.126l-0.885-1.01l-0.127-2.146
	l0.254-1.263l-0.633-0.758v-3.788l-0.885-1.264l-1.516-0.885l-1.137-1.263l-0.631-1.517l-2.146-2.397l-0.631-1.516l-1.518-0.759
	l-0.758-1.138l-1.643-0.884l-0.504-1.263l0.252-2.904l-1.137-1.516l-3.662-0.253l-1.516,0.506l-2.65,1.769h-4.295l-1.389,0.757
	h-1.891l-1.264-1.136l-7.574-0.379l-1.393,0.505l-1.514-0.379h-1.896l-2.146,1.896l-3.408,1.39l-3.41-0.759h-5.934v-2.146
	l-0.885-1.895v-2.021l0.758-1.516l2.146-2.272l0.506-1.516l-0.127-1.895l-1.516-2.903l-2.65-2.146l2.02-3.282l1.137-4.167
	l1.137-1.39l0.127-1.769l0.885-1.264l0.379-1.642l-1.391-0.758l-1.137-3.409l-1.895-0.505l-1.391-3.157l-0.885-0.379l-2.02,0.505
	l-1.518,0.884l-2.396-1.894l-0.885-1.517l-1.643-0.38l-1.264-0.884l-2.021-3.156l-1.768-0.253l-1.77-0.757l-0.125-1.769
	l-1.139-1.265l-1.768-0.252l-3.283-2.146l-0.883-1.518l-1.391-1.389l-1.643-2.904l-0.252-1.768l-2.021-0.758l0.379-1.265
	l0.885-1.389l0.254-1.642l1.01-1.265l-1.389-0.758l0.883-1.137l-3.535,0.253l-1.262,1.01l-1.518,0.632l-0.885-1.137h-2.902
	l-1.516-0.758l-0.99-1.209l2.504-3.084l0.381-3.662l1.264-2.904l1.641-0.378l1.012-1.516l1.516-0.633l1.137-0.885l0.506-1.515
	l0.885-1.39l5.43-1.265l-0.504-1.389l1.135-1.769l1.516-0.506h1.896l7.07,7.197l1.516-1.011v-3.788l-3.283-11.111l-1.893-2.649
	l-3.41-2.904l-3.662-0.379l-0.125-0.631l-0.506-1.013l-1.391-0.884h-1.895l-7.703-1.894l-1.893-2.652l-0.506-1.389l-1.576-1.263
	l0.563-1.501l2.031-2.53l0.5-1.781l1-0.875l0.625-3.406l5.564-6.938l-0.75-1.531l-0.375-1.906l5.477-7.893l3.104,0.835l4.293-2.525
	l2.271,1.517l4.295-1.265l3.66,0.253l2.146,2.146l1.77,0.126l0.127,1.768l1.137,3.031l-0.633,1.516l-0.125,3.661l3.029,1.139
	l1.264,1.389h1.896l2.02,0.631l1.643,1.263l1.895-0.125l1.643-0.632l1.264-0.884l1.389,0.757l-1.01,0.884l0.252,1.896l0.758,1.516
	l11.744,1.011l1.389,1.011l0.506,5.556l-1.77,2.778l-0.379,1.642l3.029,1.896l0.633,0.885l3.535,2.776l1.768,0.633l1.896,0.252v1.39
	l2.02,0.757l8.207,6.313h1.643l3.914-1.77l1.518,0.506v1.896l2.145,0.379l1.518,0.631l0.885,2.399l0.125,1.137l0.379,0.631
	l1.516,0.885l1.012,1.264l1.643,0.884h0.252l0.506,0.758l1.768,0.126l1.391,0.506l1.262,1.265l1.77,0.378l0.633,1.516l1.262,1.264
	l-0.379,1.643l-0.883,1.263l-0.506,1.39l-0.127,4.42l2.146,0.38v3.787l-0.631,1.264l-1.137,1.136v3.788l1.389,0.505l3.031-1.01
	l2.902,1.39l2.271,2.903l1.139,0.885l0.756,1.263l0.254,1.77l0.631,1.264h1.895l1.645,0.757l0.252,1.896l-0.506,1.516l-0.127,1.896
	l-1.01,1.01l0.127,3.788l1.264,0.758l1.641,0.254l1.516,0.757l-0.377,1.77l-0.76,1.389v3.914l1.391,0.506l0.504,1.516l0.76,1.011
	h0.883l1.264,1.896l1.518,0.884l3.66,0.506l2.604-0.712l1.438,0.965l0.631,1.389l0.127,1.769l0.506,1.391l-1.264,1.136l-0.506,0.254
	l-0.504,0.758l-1.264,0.758l-1.391,1.516l-0.379,1.643l0.633,1.264l0.125,7.322l-0.758,1.77l-1.137,1.39l-1.391,1.01l-1.643,2.524
	l-1.768,1.391l-0.506,1.264l-1.389-0.127l-3.408,4.925l-1.264,0.758l-1.896-0.379l-1.389,2.777l-1.391,0.758l-1.137,2.903
	l-0.883,1.138l-1.518,1.264l-1.264,2.524l-0.125,1.769L622.031,324.936"/>
<path id="path2781_1_" fill="#EEFFAA" d="M507.957,237.321l1.518,0.758h2.902l0.885,1.138l1.516-0.633l1.264-1.01l3.535-0.253
	l-0.885,1.137l1.389,0.759l-1.01,1.264l-0.252,1.642l-0.885,1.39l-0.379,1.264l2.02,0.758l0.254,1.769l1.643,2.903l1.389,1.39
	l0.885,1.517l3.283,2.146l1.768,0.252l1.137,1.264l0.127,1.77l1.768,0.757l1.77,0.253l2.021,3.156l1.264,0.884l1.643,0.379
	l0.883,1.517l2.398,1.895l1.518-0.885l2.02-0.505l0.885,0.379l1.391,3.157l1.895,0.505l1.137,3.409l1.389,0.758l-0.379,1.643
	l-0.885,1.264l-0.125,1.769l-1.137,1.389l-1.137,4.167l-2.021,3.283l2.65,2.146l1.518,2.903l0.125,1.895l-0.504,1.517l-2.146,2.271
	l-0.758,1.517v2.021l0.883,1.895v2.146h5.936l3.408,0.758l3.41-1.39l2.146-1.896h1.895l1.516,0.379l1.391-0.505l7.576,0.379
	l1.264,1.137h1.895l1.389-0.757h4.295l2.65-1.77l1.516-0.506l3.66,0.254l1.139,1.515l-0.254,2.904l0.506,1.263l1.643,0.885
	l0.758,1.137l1.516,0.759l0.631,1.517l2.146,2.397l0.633,1.516l1.137,1.264l1.516,0.884l0.885,1.264v3.788l0.633,0.758l-0.254,1.264
	l0.1,3.868l-1.783,0.894l-1.967,1.606l-1.428,1.785l-0.18,2.5l-3.395,5.536v2.679l-2.143,0.535h-2.68l-1.785-2.5l0.895-1.429
	l-2.68-1.071l-1.965,0.894l-0.715,2.145l-1.25,1.785l-2.32,0.715l-4.82,6.785l-1.965,0.715h-5.357l-1.785,1.25l-0.715,1.964
	l-0.715,0.18l-1.963,2.144l-0.357,2.5l-2.143,0.536l-3.395,2.855l-2.145,0.536l-5-0.536l-4.463,1.606l-5.357,6.786l-2.68,0.179
	l-1.963-1.071l-3.215-3.035l-0.357-2.5l-1.785-1.25l-2.68-3.929l-1.605,0.356h-2.68l-1.965-0.895l-5-0.355l-6.07-2.145l-4.82-0.179
	l-2.145,0.894l-1.428,1.429v2.68l0.893,1.964l0.357,5l-0.895,1.965l-1.785,1.429l-2.145,0.715l-10.355-0.355l-1.965,0.893h-5.355
	l-5.18-1.605l-3.215-3.035l-1.072-1.965l-1.605-1.25l-11.25-2.145l-3.395-2.855l-2.5-0.715l-1.428-1.964l-3.572-1.966l-1.428-1.605
	l-2.145-0.715l-1.25-1.606l-0.893-0.355l-3.037-0.356l-1.25-1.786l-3.213-2.144l-7.5-9.644h-0.357l-0.893-1.786l-4.464-1.784
	l-2.322-3.75l-0.355-1.966l-3.766-4.719l1.577-0.71l3.78-3.156l3.031-3.938l0.625-1.375l5.189-6.813l1.25-3.155l1.404-1.906
	l9.471-28.155l2.25-2.906l0.125-0.75l1.154-1.25l3.156-0.78l2.656,2.28l1.125,1.656l0.375-1.531l-0.375-2.03l2.656-1.625h1.375
	l1.029,0.25l-0.125-1.656l-1.654-0.75l-1.5-1.125l1-0.875l0.625-3.28l3.029-5.313l1.656-0.25l2-2.406l5.564-0.25l4.404-2.03h2.406
	l3.906,1.405l1.031,1l2.25,0.5l1.279-0.75l-0.75-1l-1.904-0.25l-1.5-0.655l-0.781-1.625l-1.75-0.25l0.125-1.781l1-1.125l1.531-0.75
	l5.529-4.688l0.531-1.625l0.875-1.155l0.375-1.5v-1.906l1.25-2.78l1.281-1.125l0.875-1.281l1.934-0.843l0.467,0.98l1.266,0.631h2.02
	l1.391-0.505l1.137-0.884l1.389,0.505l1.896,2.271l0.504,1.643v1.516l4.041,1.138L507.957,237.321L507.957,237.321L507.957,237.321z
	"/>
<path id="path2785_1_" sodipodi:nodetypes="cssssssssssssssssssssssssssscsssssscssssssssssssssssssssssssssssssssscsssscsscssssssssssssscsssssssssscssssssssssssscsssssssscssssssssssssssssscsssssssssssssscsssssssssssssssscssssssssssssssscssssssssssssscssssssssssssssc" fill="#EEFFAA" d="
	M304.538,522.437l6.313,2.271l3.787,0.254l5.81,1.769l16.162-0.758l2.777-1.011l14.646,0.252l2.525-1.264l5.051,2.778l0.757,1.263
	l4.294,0.506l8.081,4.041l6.313,1.516l7.322-0.252l3.03-0.759l30.559,5.052l5.809-1.77l2.02-1.768l1.266-2.525v-3.282l-2.021-0.506
	l-2.523,1.265h-3.283l-2.525-1.265l-7.323-7.828l0.253-2.271l1.264-2.525l-1.769-2.021l1.516-2.525l0.505-3.282l1.264-2.524
	l1.263-9.598l-0.505-2.776l0.505-2.273l-1.011-5.556l1.518-2.271l2.02-1.769l1.265-2.524l0.252-3.536l-1.264-2.776l-1.768-2.021
	l-0.505-0.253l0.252-3.788h7.576l3.994-2.265l-5.76-4.783l-1.07,0.715l-3.571,0.356l-1.606-1.429l-2.5-0.18l-1.429-6.965
	l0.894-1.965v-2.855l-1.785-1.43l-1.606-2.144v-5.356l-0.356-0.894l-1.606-1.25h-2.5l-7.5-2.144l-2.679-0.18l-1.965-1.07
	l-2.144-0.535l-1.606-1.25l-1.964-0.895l-1.43-2.32h-0.536l-1.784-1.25l-1.25-1.606l0.179-2.5l1.25-1.607l-3.215-3.394l-0.356-2.679
	l-1.071-2.68l-0.355-2.32l-2.145-3.394l-4.424-1.973l-1.519,0.373l0.5,1.5l0.656,0.875l-1.531,0.781l-3.25,4.155l-0.03,0.125
	l-2.656,4.281l-1.25,0.78l-5.563,0.125l0.25,1.5l1.531,1.281l-0.125,3.655l-1.031,0.875l-0.625,1.375l-0.375,1.781l-0.875,1.25
	l-0.125,3.813l-0.125,0.375l-1.03,1.5v1.905l0.625,1.25l-0.25,1.906l-1.375,1.25l-3.031,1.156l-0.75,1.75l-2.28,2.405l-0.25,3.53
	l-0.625,1.406l-2.656,0.5l-1.405,1.125l-1.625,0.25l-2.406,1.781l-1.375,0.5l-0.375,1.625l-4.063,3.029l-0.75,3.031v2.156
	l-0.875,1.531l-0.25,1.625l-1.28,0.875l-0.625,3.279l-2.406,0.156l-1.875-0.406l-1.405,1.156l-1,4.906l0.375,1.156h3.78v0.875
	l-4.78,7.188l-0.25-0.125l-0.406,2.031l-0.875,1.125l-0.375,1.531l-1,1l-1.28,4.813l-2.125,2.375l-0.531,1.844l-1.875,2.531
	l-0.625,1.5l-0.906,1.031l-0.25,2.188l-1.25,0.656l-1.125,1l-1.406,0.75l-0.875,1.281l-1.405,0.75v1.375l0.905,1.281l-0.655,0.5
	h-1.875l-0.875,1.25l-0.281,3.654l-0.375,1.031"/>
<path id="path2812_1_" sodipodi:nodetypes="csssssssssssssssssscssssssssssssssscsssssscssssssssssssssssssssssssssscssssssssssssscsssssssssssssssssssscsssssssssssssssssssssssssssssssssssssssssssssssssssscssssssssssssssssssssssssssssssssssssssssssssssscssssssssssssssssssssssssssssssc" fill="#EEFFAA" d="
	M445.959,595.927v-3.03l-2.271-2.021l-3.283-0.506l-1.01,2.777l-2.777,0.506l-3.283-0.758l-0.758,3.03l-3.029,0.505l-3.535-0.252
	l-2.272-1.518l-1.517-2.775l-0.757-3.031l-4.8,3.536l-0.252-7.324l2.021-5.808l0.253-0.253l1.768-4.041l0.505-3.282l-0.252-3.536
	l-1.516-2.525l-0.252-7.321l0.757-3.03l2.777,0.505l0.506-7.071l-5.052-10.857l-20.708-3.03l-3.788-1.516l-2.021-0.253
	l-10.354,1.011l-14.396-5.558l-4.294-0.505l-0.757-1.263l-5.051-2.778l-2.525,1.264l-14.646-0.252l-7.575,2.021l-11.364-0.253
	l-5.81-1.769l-3.787-0.253l-6.445-2.205l-3.912,0.067l-1.25-0.656l-1.406-0.25l-0.5,1.531l-1.75,0.125l-6.063,10.844l-0.125,0.656
	l-2.156-0.125l-1.281,0.75l-2,2.406l-0.625,1.625l-0.25,3.781l-1.03,1.154l-0.25,1.625l1.655,2.406l-0.25,1.781l-1.655,2.375
	l-3.156,0.125l-0.375,1.531v1.875l-2.156,1.154v2.406l-0.125-0.125l-0.5,0.25l-0.375,1.625v1.906l0.5,1.375l1.906,0.125l1.375,2.031
	l-2.281,2.779l-1.375,2.781l-0.375,1.5l-1.906,3.156l-1,3.531l-1.28,1.904l-2.625,7.438l0.25,7.469l-0.375,1.5l0.125,1.406
	l1.75,0.875l-0.125,1.656l-1.5,0.625l-2.156,1.625l0.5,2.154l1.125,0.625l1.531,0.25l0.125,1.906l-1,1.25v3.781l1.25,0.906
	l2.03,2.779l1.375,1.125l-1.25,0.75l-0.905,1.656l-1.75,0.125l-0.5-1.406l-1.031-0.875l-1.5,0.875l-2.215,2.533l3.854,0.129
	l5.81,2.273h3.788l1.516,2.271h3.788l2.777-1.264l6.313,2.271l3.788,0.506l2.273-1.77l1.768-2.27l0.252-3.537l-0.758-3.029
	l2.021-2.021h3.283v3.281l3.535,1.266l1.011-2.777l4.798-2.779l0.758-3.533l1.769-2.021l6.313-2.525l2.777,1.518l1.769-6.063
	l1.516-2.523l4.041,0.252l2.524-1.264l1.011-3.029l5.809-1.77l1.012-2.775l2.271-1.771l1.769-2.271l2.777,1.263l2.271,1.768
	l2.778,1.013l5.809-2.273h7.575l5.305-2.775l5.051,1.263l1.517,5.051l4.293,3.535l1.516,2.271l2.524,1.518l3.536,0.252l2.271,1.768
	l3.029,1.012l13.891,1.516l2.777-1.516l1.769-2.021l5.557,0.254l-0.505,3.787l2.021,3.283l2.021-2.021l3.283-0.758l2.021,2.021
	l3.029-0.252l2.777-1.012l3.535,0.254l2.777,1.516l3.535,0.504l1.264-2.525V603.5l-0.758-3.03l-1.516-2.273L445.959,595.927
	L445.959,595.927L445.959,595.927z"/>
<path id="path2843_1_" sodipodi:nodetypes="csssssssssssscsssscssssssscsssssssssssssssssssssssssssssscsssssscssssssscsssssssssscsssssscsscssssssssssssssssscsssssssssssssssscssssssssssssssssssssssssssscssssssssssssssssssssscssssssssssscsssssssssssscssssssscsssssssssssscssssssssssssssssssssssssssscssssssssssssssssssssssssssssssssssssssccsssssssssssssssscsssssssssssssssssssssssssssssssssssssssssssssssssssssssssssssssscssssssssssssssssssssssssssssssssssssssssssssssssssssssssssssssssscsssssssssssssssssssssssssssssssssssssssssssscssssssssssssssssssssc" fill="#EEFFAA" d="
	M675.338,654.957l-3.355-0.945l-2.273-1.77l-3.029-0.758h-3.787l-2.777,1.01l-4.293,3.535l-7.324,13.133l-0.252,0.252l0.506,4.547
	l2.021,2.271l3.281,1.77v0.252l-12.121,18.436l-0.506,8.84l-1.768,2.271l-2.271,1.516l-1.264,2.525l-1.516,6.061l-2.271,1.77v3.789
	l-1.518,2.775l-0.252,2.779l-3.031,5.809l-4.293,3.535l-1.01,2.777l0.758,3.535v11.363l-1.01,2.777l-9.85,1.516l-2.525,1.77
	l-2.02-0.252l-0.254-3.537l-1.768-3.283l-2.021-1.768L599,753.006l-1.012-0.76l-1.768-2.271l-3.029-1.01l-2.525-1.518v-2.775
	l-3.787-5.305v-4.293l-1.264-2.777l-1.77-2.271l-5.051-3.283l-5.305,2.525l-0.504,1.262h-1.012l-2.777-1.262l-1.262-2.525
	l-3.535-4.041l-3.537-0.252l-5.303-3.283h-4.293l-1.264-2.523l-0.758-0.758l-3.789-9.092l0.252-3.789l-3.787-4.797l-0.758-2.525
	l0.758-3.029l-0.252-3.537l-15.404-10.605l-3.029-0.758l1.01-3.535l1.77-2.523l3.281-1.012l-0.506-2.271l1.518-2.271l3.283-0.506
	l1.514-2.271v-7.07l-2.271-1.516l-0.506-1.643l1.266-1.139l3.029-0.758l3.029-2.02l3.029-0.758l0.76-3.535l-1.012-3.029l-2.271-1.77
	l1.768-2.021l0.76-3.283l2.02-2.271l2.273-1.516l0.758-3.029l2.27-1.516l3.537,0.252l2.777-1.264h3.787l1.264-0.506l2.525,1.518
	l3.029,0.756l4.799-4.039v-7.576l0.758-3.029l2.271-1.516l-2.271-6.314l2.523-1.264l3.789,1.012l2.777-1.264l1.516-2.271
	l3.283-1.517l4.545-0.252l3.787-8.334l1.264-10.354l1.264-2.524v-3.788l2.021-5.558v-9.344l-2.523-2.272l-0.254-3.535l0.758-2.776
	l-8.08-5.81l0.252-3.535l3.283-0.758l3.029-2.272v-1.516l-0.758-3.03l0.504-3.535l2.273-1.516l1.01-3.283l0.254-3.787l1.01-3.03
	l2.021-2.524l0.252-3.788l2.271-2.272l3.029-0.758l-0.504-5.557l-1.768-3.03l4.293-3.788l-0.254-3.029l-1.01-3.282v-3.788
	l0.758-2.021v-7.576l-2.021-2.524l-1.01-0.253v-3.535l6.063-12.88l0.252-7.323l2.271-2.272l2.525-1.263l1.516-2.524l2.525-1.264
	l2.02-3.535l0.758-2.524l0.254-3.536l-1.516-2.271l-3.535-0.505l-1.012-2.777l-1.768-2.021l-3.787-1.263l-0.76-1.011l-0.252-6.313
	l2.777-6.564l3.029-0.759l2.021-1.769l2.777-1.263l3.789-3.788h3.787l1.516-2.272l-1.75-5.597l1.992-1.549l0.895-1.785l-0.18-2.5
	l3.75-1.607l1.07-1.605l2.68,0.179l1.43-1.25l0.535-2.321l-0.895-4.643l1.25-1.965l2.322-0.895l1.605-1.07l1.785-4.106l1.43-1.606
	h2.68l1.785-1.25l1.43-1.785l2.143-4.285l0.715-7.321l0.895-1.964l2.32-1.25l1.275-1.461l12.021,7.7h8.082l3.027,1.263l4.041,0.505
	l8.082,5.556l8.334,1.012l3.029-0.759l-3.029-2.523l0.758-3.03l3.281-0.758l2.273-1.516l2.271,1.011l2.021-1.771l-0.758-1.515
	l-2.021-1.769l0.252-3.282l2.021-0.758l4.293,3.787l4.799,1.517l4.545,3.535l9.092,3.788l7.324,0.505l8.08,4.041l4.154,0.492
	l-0.125,1.275l-0.625,1.25l-1.5,0.656l-0.906,1.5l-2.25,2.031l-2.656,3.904l-0.125,5.563l-1.156,0.875l-1.125,2.656l-1.5,0.625
	l-0.779,1.904l-0.25,0.125l-3.531,0.375l-3.031,5.438l-1.25,1l-1.656,0.25l-3.279,2.906l-1.5,0.375l-0.906,1.125l-1.25,0.779
	l-3.906,5.281l-1.031,3.281v5.688l2.406,4.313l-0.75,0.75l-0.5,5.188l-0.25,0.5l-0.375-0.25l-1.406,2.438l-1.375,0.469l-3.219,3.72
	l-1.531,0.813l-4.344,4.688l-0.625,1.375l0.125,11.875l0.625,1.25l0.5,3.28l7.189,7.47v1.875l-1,3.405l-1.406-0.375l-0.375,1.656
	l0.656,1.25l-1.531,0.5l-1.125,2.53h1.625l-0.75,3.031l-1.906,0.125l-0.75-1.125h-1.5l-1.031,0.875l-0.625,1.655l-1.125,1.125
	l-1.029,3.031l1.404,3.03l0.125,5.563l-1,3.406l-0.125,5.28l-0.529,1.656l-0.125,5.563l-0.625,1.25l-0.375,3.405l-1.906,4.313v1.875
	l-0.625,1.406l-0.25,1.625l-1.875,3.938l-0.281,1.75l-3.281,4.813l-0.625,2.125v10.5l0.5,1.375l-1.375,6.438l-3.529,5.438
	l-1.656,1.125v1.78l-0.625,1.375l-0.125,1.781l0.875,0.625l0.75,2.53l-0.875,1.125l-0.25,1.656l-0.625,1.25l-0.875,6.938
	l-0.906,1.03l0.125,1.25l0.781,1.156l-1.031,1.125l-1.5,0.625l-0.5,3.405l-1.281,1.531l-0.125,12.75l-0.875,1.75l-0.125,3.939
	l-0.875,3.029l-1.404,1.25l-0.375,1.656l-1.625,2.375l-0.156,1.906l-1.25,3.281l-0.125,3.654l-0.875,1.406l-0.25,2.125l0.5,0.375
	l0.625,1.656v3.781l1.656,2.529l-0.125,3.656l-0.531,1.531l-1,1.125l-1.5,0.625l-1.781,0.125l0.375,0.5l1.656,1.031l-0.781,1.5
	v1.904l-0.875,3.281v1.906l-0.625,1.5L675.338,654.957L675.338,654.957L675.338,654.957z"/>
<path id="path2425_1_" sodipodi:nodetypes="csssssssssssssscsssssssssssssssssscsssssssssscsssssssssssssssssssssscsscsssscsssssssssssssssscssssssssssssssssssssssssssscssssssssssssssssssssscssssssssssscsssssssssssscssssssscsssssssssssscsssssssssssscssssssssssssssssssssssssssssssssssscssssssssssssssssssssssssscssssssssssssssssssssssssssssssssssssssssssssssssccsssscsssssssssssssssssssssssssssssssssz" fill="#EEFFAA" d="
	M417.926,537.844l5.052,10.857l-0.505,7.071l-2.778-0.505l-0.757,3.03l0.252,7.321l1.516,2.525l0.252,3.536l-1.515,6.061
	l-0.758,1.265l-0.253,0.253l-2.021,5.808l0.252,7.324l4.8-3.536l0.757,3.031l1.517,2.775l2.272,1.518l3.535,0.252l3.029-0.505
	l0.758-3.03l3.283,0.758l2.777-0.506l1.01-2.777l3.283,0.505l2.271,2.021l0.098,3.015l6.471-0.741l11.617,4.293h3.787l3.283,0.759
	l1.262,2.523l0.254,8.588l-0.76,3.281l-2.775,2.273v3.789l1.514,2.523l2.273,2.021l0.506,7.322l2.523,5.809l2.021,2.271
	l11.363,1.264l5.557-2.271l11.111,1.01l2.777,1.012l11.869,0.758l6.313,2.271h0.504l2.525,1.77l1.264,6.313l1.01,0.506l1.264-1.264
	l3.029-0.758l3.031-2.021l3.029-0.758l0.758-3.535l-1.01-3.029l-2.273-1.77l1.77-2.021l0.758-3.283l2.021-2.271l2.271-1.516
	l0.758-3.031l2.271-1.514l3.535,0.252l2.777-1.264h3.789l1.262-0.504l2.525,1.516l3.031,0.756l4.799-4.039v-7.576l0.758-3.029
	l2.271-1.518l-2.271-6.313l2.523-1.262l3.789,1.01l2.775-1.264l1.518-2.271l3.281-1.516l4.545-0.252l3.789-8.334l1.264-10.354
	l1.264-2.525v-3.788l2.021-5.557v-9.344l-2.525-2.272l-0.252-3.536l0.758-2.775l-8.082-5.811l0.254-3.533l3.283-0.76l3.029-2.271
	v-1.516l-0.758-3.029l0.504-3.536l2.273-1.516l1.01-3.282l0.254-3.788l1.01-3.03l2.021-2.524l0.252-3.788l2.273-2.272l3.029-0.757
	l-0.506-5.558l-1.768-3.029l4.293-3.788l-0.254-3.03l-1.01-3.283v-3.787l0.758-2.021v-7.576l-2.02-2.524l-1.012-0.253v-3.535
	l6.063-12.88l0.252-7.322l2.271-2.273l2.525-1.263l1.516-2.525l2.525-1.263l2.02-3.535l0.76-2.524l0.252-3.535l-1.516-2.272
	l-3.535-0.505l-1.012-2.777l-1.768-2.021l-3.787-1.264l-0.758-1.012l-0.252-6.313l2.775-6.565l3.029-0.757l2.021-1.77l2.777-1.264
	l3.789-3.787h3.787l1.516-2.272l-1.719-5.636l-1.432-0.795l-4.822-1.071l-1.25-1.25l-4.82-0.536l-1.07,1.607l-5.18-0.357
	l-2.143-0.714l-1.072-1.606l-3.215-2.32h-0.893l-2.32,3.75l-0.537,2.144l-1.25,2.144l-1.963,0.715l-2.5-0.894l-1.607-1.071
	l-4.105,1.785h-2.68l-1.785,1.071l-0.895,1.785l-4.285-1.25l-1.25-1.429l-1.965-0.894l-1.605,1.07l-1.25,1.606l-2.5,0.179
	l-0.715,1.965l-1.25,1.965l-1.43,1.25l-10.535,0.179l-1.785,0.894l-0.535,2.145l-1.25,1.964l-1.785,1.071l-1.25,1.606l-1.965,1.25
	l-1.25,1.964l-3.93,1.965h-4.105l-1.607,1.071l-4.285-0.536l-2.5,0.536l-1.43,1.429l-1.963,6.251l-2.68,2.679l-1.785,1.071
	l-5.18,0.179l-2.32-0.536l-1.43-1.25l-2.32,0.357l-6.072,5.179l-2.5,0.535l-2.5-0.355l-2.855-1.43l-0.355-0.536l-1.607-1.429
	l-1.07,4.286l-0.895,1.785l-1.428,1.25l-0.715,1.605l-1.07-0.538v-5.355l-1.605-1.43l-4.645-0.894l-1.07-1.606l-2.32-0.715
	l-1.607,1.071l-3.75,7.5l0.357,6.607l-1.25,1.604l-4.465,1.25l-3.215,3.215l-3.75,9.821l-6.43,6.964l-4.285,1.43l-2.143,0.18
	l-1.785-1.607l-2.5-0.535h-5.357l-2.143,0.535l-9.01-3.301l-3.869,2.313h-7.576l-0.252,3.788l0.505,0.253l1.769,2.021l1.264,2.776
	l-0.252,3.536l-1.265,2.524l-2.021,1.769l-1.516,2.271l1.01,5.557l-0.505,2.272l0.505,2.776l-1.263,9.598l-1.265,2.524l-0.505,3.282
	l-1.515,2.525l1.768,2.021l-1.263,2.524l-0.253,2.271l7.323,7.829l2.524,1.264h3.283l2.523-1.264l2.021,0.505v3.282l-1.264,2.525
	l-2.021,1.768l-5.807,1.77L417.926,537.844L417.926,537.844L417.926,537.844z"/>
<path id="path2856_1_" sodipodi:nodetypes="cssscsssssssscsssssssssssssssssssssssssssssssssssssssscssssssssssssssssssssssssssssssssscssscssssssssssssssssssssssssssscsssssssssssssssssssssssssssssssssssssssssssssssscsssssssssssssssssssscssssssssssssssssssssssssssssssscssssssssssssssssssssssssssssssssssssssssssssssssssssssscsssssssssssssssssssssssssccsssssssssscssssscssssssssssscssscsssssssscssssssssssssssssscssssscssssssscscssssssssssssssssssssssscsssssssssssssssssssssscssssssssssscsssssssssssscsssssscsssssssssscssssssscsssssscsssssssssssssssssssssssssssssscssssssscsssscssssssssssssc" fill="#EEFFAA" d="
	M675.238,655.014l-2.244,6.811v1.906l-1.406,0.875l-1.75,6.969l-0.125,5.781l-1.779,3.813l0.125,5.531l-1.125,5.563l-1.531,1.031
	h-1.875l-1.531,0.375l-1.25,1l-1.125,3.154l-0.781,1.25l-1.375,1.281l-0.625,1.375l-0.125,1.656l-1.156,1.125l-0.375,4.063l-1,1.25
	l-2.404,9.721l0.875,1.125l0.529,1.404l-0.779,1.25l-1.5,1.156l-1.406-0.25l-0.875-1.406l-1.125,0.5l1,1.031l0.125,1.375
	l-2.969,2.031l0.313,7.938l1.906,3.781l0.375,1.781l-0.25,3.656l-1.406,1.404l0.125,5.406l3.031,3.156l-0.875,2.906l-3.656,0.125
	l-1.25,1.029l-2.154,4.156l-1.281,0.625l-3.781,0.125l-0.875,1.156l-1.375,0.75v1.906l-0.781,1.25v1.904l-2,2.875l-1.406,4.939
	l-1,1.375l-0.875,5.688l-1.154,1.656l-0.25,1.625l-1.125,0.781l-1.031,1.125l-1,2.904l-1,1.625l-1.281,5.063l-0.75,0.875l-0.5,1.531
	v1.875l-3.279,3.438l-0.5,1.375l-1.781,0.125l-1.125,1l-0.875,1.531l-0.656,0.25l-0.25,3.156l-3.406,7.438l-2.156,2.031
	l-2.125,4.406l-0.625,3.156l-1.154,1.029l-1.5,0.375l-2.406,2.531l-0.125,3.031l-3.156-0.781l-1.404,0.531l-3.406,0.5l-5.813,4.781
	l-0.75,1.154l-0.25,1.625l0.625,1.281l1.779,2l0.375,1.281h-1.904l-0.75,1.25l0.625,1.25l1.279,0.656l1,1.125l-0.375,1.779
	l1.125,2.75l-0.5,1.656l-2.125,1.906l-1.654,0.25l-1.375,1.375l-1.281,7.969l-2.156,2l-2.75,1.156l-1.156,1l-0.75,1.25l-2.529,2.031
	l-0.75,1.125l-1.125,0.779l-1.531,0.625l-3.781,4.531l-2.656,1.531l-1.529,0.375l-1,0.875l-1.375,0.625l-1.906,0.281l-1,1
	l-1.781,0.125l-0.875,1.125l-2.406,1.404l-1,1l-2.654,1.25l-0.375,1.531l-1,1.25l-1.781,0.125l-1.125,1.031l-4.064,1.75
	l-1.125,1.031l-1.654,2.625l-0.875,3.154l-1.125,1.281l-0.25,1.625l-0.906,1.156l-0.125,1.75l-0.75,1.531l0.125,1.75l-0.189,0.594
	l-0.188,5.219l-0.75,1.469l-0.063,1.375l-1.969,2.846l-3.531,3.154l-0.875,1.281l-1.656,0.875l-0.75,1.25l-0.25,1.656l-0.875,1.25
	l-0.125,1.781l-0.654,1.625v1.904l-1.25,0.75v2.531l-2.906,6.814v1.904l-0.875,0.875v3.781l-2.156,4.189l0.125,2.125l-1.25,1.654
	l-0.531,3.531l-0.875,1.125l-0.25,3.531l-1,1.281l-0.375,1.75l-1.906,2.529l-0.5,1.406l-0.875,1.125l-3.563,10.094l-0.875,1.281
	l-0.5,5.031l-2.531,2.531l-2.906,9.094v3.531l-0.625,1.404l0.25,5.406l1.281,1.656v7.813l0.875,3.156l0.09,4.648l-3.504,1.172
	l-2.021,1.77l-3.281,1.262l-2.777-4.797l-3.029-0.758h-4.041l-1.264-2.777l-2.777-1.012l-2.273-1.516l-4.293,0.252l-0.504-2.271
	l0.758-3.281l1.77-1.012l-2.779-1.01l-1.01-2.525l-4.797-2.775l1.768-2.273l2.525-1.264l-0.254-7.576l-2.525-1.516l-1.262-2.523
	h-2.777l-3.789-4.041l-3.535-1.77l4.799-14.646l6.564-1.01l1.264-2.777l-0.758-3.283l-2.777-2.02l-2.523-5.305l-4.041-2.525
	l-0.252-3.029l-1.012-3.029l4.293-3.283v-3.789l-4.039-8.08l-0.506-4.293l-1.77-1.012l-1.01-3.029l0.504-3.535l2.779-5.051
	l-1.266-2.777l1.518-2.271l1.01-2.777l-0.252-3.535l1.01-2.525l2.021-2.021l0.758-3.029l1.768-2.021l0.254-1.01l4.041-5.557
	l0.252-3.535l1.77-2.271l0.252-2.525l3.283,0.506l3.535-1.77l6.061-1.262l3.031-6.314l11.111-0.506l2.02-2.271l0.252-3.535
	l1.77-2.021l0.506-9.85l2.02-2.021l-1.01-2.271v-3.789l-1.012-3.281l-2.523-1.264l-3.283-0.252l-2.777-2.525l-0.758-1.516
	l-0.758-3.031v-3.787l0.451-0.973l0.715-6.785l-2.855-3.93l-5.357-0.355l-2.855-8.57l0.355-5l-1.428-1.43l-1.787-3.93v-5.355
	l1.072-4.285l10-12.857l0.715-1.785v-3.928l6.428-4.645l-1.428-4.285l-2.5-2.5l1.785-4.287l3.57-3.928l-1.07-22.5l3.215-2.145
	l2.143-5l3.57-1.785l-1.07-3.928v-3.93l1.43-3.93l-0.357-1.785l-1.07-0.715l2.855-3.57l3.572-1.43l6.785-5.715l5-6.43h3.93
	l7.855-2.143l2.857-2.857l8.371-3.572l0.914,2.523l3.789,4.799l-0.252,3.787l3.787,9.094l0.758,0.756l1.264,2.525h4.293l5.303,3.283
	l3.537,0.252l3.535,4.041l1.262,2.523l2.777,1.264h1.012l0.504-1.264l5.305-2.523l5.053,3.283l1.768,2.271l1.264,2.777v4.293
	l3.787,5.303v2.777l2.525,1.516l3.029,1.012l1.768,2.271l1.012,0.758l4.545,0.254l2.021,1.768l1.768,3.283l0.254,3.535l2.02,0.252
	l2.525-1.768l9.85-1.516l1.012-2.777v-11.365l-0.76-3.533l1.012-2.777l4.293-3.535l3.029-5.811l0.252-2.777l1.518-2.775v-3.789
	l2.271-1.77l1.516-6.061l1.264-2.525l2.271-1.516l1.77-2.271l0.504-8.84l12.123-18.436v-0.254l-3.283-1.768l-2.021-2.273
	l-0.506-4.545l0.254-0.252l7.322-13.133l4.293-3.535l2.777-1.01h3.789l3.029,0.758l2.271,1.768L675.238,655.014L675.238,655.014
	L675.238,655.014z"/>
<path id="path2905_1_" sodipodi:nodetypes="cccccccccccccccccccccccccccccccccccccccccccccccccccccccccccccccccccccccccccccccccccccccccccccccccccccccccccccccccccccccccccccccccccccccccccccccccccccccccccccccccccccccccccccccccccccccccccccccccccccccccccc" fill="#EEFFAA" d="
	M357.563,660.344l-0.25,0.5l-2.281,1.5l-3.281,0.25l-2-2l-3.281,0.5l-5.313,2.531h-7.594l-6.031,3.531l-0.281,0.25l-1.5,2.531
	l-6.313-0.281l0.25,3.031l-7.063,0.531l-0.531,3.281l-1.25,2.5l-1.781,1.531l-2.5-1.531l-2.031,2.031l1,2.781l-0.5,1.781
	l-9.594,4.781l-0.75,3.031l-3.281,4.813l-3.031,1.25l-4.563-1.25l-1.25-2.031v2.781l-2.531-0.25l-2.281-2.031l-1-3.031l-3.781-0.75
	l-2.75-1.813l-0.781-0.969l-7.188-1.281l-3.906,6.813l0.625,1.281l1,0.125l-0.625,1.875l-1.281,0.906l-0.25,1.75l2.781,1.656
	l1.156,0.25l1.625-0.5l-2.156,3.156l-3.406,1.25l-0.875,1.281l0.25,1.75l0.75,1.531l-2.5,2.375L255.031,716l-0.75,1.375
	l-2.406-0.625l-0.625,1.281l-0.75,3.406l0.125,3.781l-4.938,9.219l-0.5,3.531l-1.5,2.531l1.125-1.406l1.531-0.625l1.5-0.125
	l0.625,7.969l1.156,0.875l1.5,0.625l-0.875,5.313l-3.281,1.375h-0.25l-3.531,1.156l-3.156,2.906l-3.281,1.5l-0.25,3.531l0.25,0.5
	l0.25,3.688l0.75,0.875h1.906l-0.125,5.938l0.75,2.406l2.125,2.5l0.281,0.781l1.875-0.656l1.281-0.875l1.031-1.063l0.344,1.563
	l-0.25,1.781l4.656,2.781l0.906,0.25l1.75,1.625l3.156,1.656l3.938,4.156l1.5,0.75l5.313,4.938l0.125,0.5l3.406,3.281l2.406,3.656
	l1.625-0.375l2.281-2.125l1.375-0.781l-1,2.156l-0.875,1.125v1.281l3.281,0.875l-1.656,1.406l-1.875-0.125l-1.031-1.406l-0.875-0.5
	l0.75,1.906l1.156,1.5l0.5,1.656l-0.5,9.594l-0.531,1.375l1,2.031l1.281-0.75l2.031-2.031l1.531-0.563l0.063-0.031l8.5,3.125
	l2.531-1.281l1.75,1.031l3.781,4.031h3.531l0.531-0.75l2.781,1.25l2,0.25l1.531-2.031l17.938,4.063l3.781-0.25l6.313-5.813
	l1.75-2.531l3.031-1l3.531-0.25l2.531,1.5h3.031l1.531-6.313l1.5-0.75l1.031-1.281l0.5-3.281l3.781-8.844l3.031-0.75l1-3.031
	l0.25-3.531l5.563-0.25l0.25-3.531l9.094-6.563l3.531-5.563l10.375-7.063l2.25-2.531l3.781-2.281l0.531-3.031l0.25-0.25l1.25-0.75
	l0.5-3.531l1.281-2.531l0.25-3.531l5.563-6.813l1.75-0.25l8.094-10.875l0.25-3.781l4.031-5.063l0.75-3.031l-2.25-1.75l-0.281-0.5
	l-1,0.75l-2.531-1.25l-6.313,1.25l-3.031-1l-3.531-2.531l-3.781,5.563l-3.031,0.75l-3.281-0.25l-4.281-3.031l-6.063-1.781
	l-1.031-2.5l3.281-4.813l-0.75-2.531l-2-3.281l-0.531-2.531l1.281-2.5l-1.031-2.781l-0.25-3.531l1.531-2.781l2.281-1.781l0.25-3.031
	l-1.031-2.781l-3.531-0.25l-3.781-1.25l-1-2.281l2.5-1.75l-0.25-3.281l-7.813-0.531v-3.281l2.531-1.75l1.5-2.281l-2.031-1.781
	l-2.25,1.281l-3.031-0.75l-2.531-2.031l-3.281-1l-1.781-2.281L357.563,660.344L357.563,660.344z M291.656,770.438l6.313,2.75v0.031
	L291.656,770.438L291.656,770.438z"/>
<path id="path3082_1_" sodipodi:nodetypes="cccccccccccccccccccccccccccccccccccccccccccccccccccccccccccccccccccccccccccccccccccccccccccccccccccccccccccccccccccccccccccccccccccccccccccccccccccccccccccccccccccccccccccccccccccccccccccccccccccccccccccccccccccccccccccccccccccccccccccccccccccccccccccccccccccccccc" fill="#EEFFAA" d="
	M333.31,955.42l6.838,5.557l1.75,0.75l2.781,2.531l5.438,1.625l0.25-0.625l-0.875-14.531l0.875-2.906l0.875-1.125l1.846,0.441
	l2.462-2.205l2.021-5.811l0.252-3.535l1.77-6.063v-3.787l-3.535-4.293l0.253-18.184l2.021-6.063l1.77-2.271l1.768-6.818
	l-0.252-4.545l0.757-1.264l-0.252-15.152l1.264-2.777l0.505-3.281l1.264-2.525l1.517-9.85l2.524-1.264l1.769,0.76l4.545,0.252
	l1.517,2.271h3.788l2.777-1.262l6.062,1.514l3.535-0.252l2.272-1.77l2.524-3.281l0.252-1.264l4.041-3.281l1.263-0.506l6.566-4.547
	l3.534-0.252l2.778-2.021l3.029-0.758l3.03,1.264l1.768,2.02v3.789l2.778,1.264h2.777l1.012-1.012l3.029-0.758l3.281-4.799
	l3.031-0.758h3.787l8.586,5.305l6.314,7.576l2.777,1.516l2.777-1.516l1.768-2.273l5.053-2.523l1.516-2.271h3.283l1.01,0.252
	l2.523,1.264l0.254,1.262l2.271-0.756l4.496,3.033l0.711-6.752l-2.855-3.928l-5.357-0.357l-2.855-8.57l0.355-5l-1.428-1.43
	l-1.787-3.928v-5.357l1.072-4.285l10-12.855l0.715-1.787v-3.928l6.428-4.645l-1.428-4.285l-2.5-2.5l1.785-4.285l3.57-3.93
	l-1.07-22.5l3.215-2.143l2.143-5l3.57-1.787l-1.07-3.928v-3.93l1.43-3.93l-0.357-1.785l-1.07-0.715l2.857-3.57l3.57-1.43
	l6.785-5.715l5-6.43h3.93l7.855-2.143l2.857-2.857l8.494-3.563l0.791-3.041l-0.252-3.537L526.267,678.5l-3.029-0.758l1.01-3.535
	l1.77-2.523l3.281-1.012l-0.504-2.271l1.516-2.271l3.283-0.506l1.516-2.271v-7.072l-2.271-1.514l-0.602-1.748l-0.916-0.271
	l-1.262-6.314l-2.525-1.768h-0.506l-9.85-2.777l-1.01,0.252l-2.525,1.264l-6.564,1.01l-2.273,1.518l-6.313,1.262l-4.293,3.535
	l-1.516,2.525l-2.777,1.264l-2.273,1.768l-3.281,0.506l-2.273,2.523l-1.768,4.295l-1.77,1.516l-1.01,2.777l-1.77,2.021l-0.252,3.533
	l-2.777,1.012h-3.787l-2.021,2.02l-1.516,2.525l-4.041,4.041l-7.07,0.506l-2.271,5.809l-5.051,2.525l-1.01,2.777l-6.566,0.504
	l-1.264,6.566l-8.08-0.252l-2.273-2.021l-7.828-0.254l-1.263,11.617l1.263,2.775l2.021,2.525v3.789l-1.1,1.082l0,0l0.336,0.438
	l2.271,1.768l-0.758,3.031l-4.04,5.051l-0.253,3.787l-8.081,10.859l-1.77,0.254l-5.556,6.816l-0.253,3.535l-1.264,2.525
	l-0.505,3.533l-1.264,0.76l-0.253,0.252l-0.505,3.029l-16.415,11.869l-3.535,5.557l-9.092,6.566l-0.252,3.533l-5.557,0.254
	l-0.253,3.535l-1.012,3.031l-3.029,0.756l-3.788,8.84l-0.505,3.283l-1.011,1.262l-1.516,0.76l-1.516,6.313h-3.03l-2.525-1.516
	l-3.535,0.254l-3.029,1.01l-8.081,8.334l-3.787,0.252l-10.103-3.283l-7.829-0.758l-1.516,2.021l-2.021-0.254l-2.777-1.264
	l-0.505,0.758h-3.535l-3.788-4.041l-1.768-1.01l-2.525,1.264l-8.447-3.188l-1.653,0.662l-3.23,3.006l1.203,1.406l0.75,4.188
	l3.031,6.313v1.875h0.655l0.25-1.625l0.625-1.279l1.906-0.125l2.125,5.063l-0.25,1.625l-1.875,0.25l-1.406-0.875l-0.75-1.25
	l-0.375,0.875l0.125,1.779l0.75,2.25l0.125,1.781l1.781,3.406v1.375l8.938,21.094l0.155,1.781l1.5,3.406l1.375,1.75l3.108,6.604
	l1.713,3.777l4.53,5.564l-2.125,2.5l-3.905-3.906l2.5,6.063l-4.031,3.906l-0.25,4.188l-0.5,1.625l0.5,1.781l2.781,2.531l0.875,1.375
	v1.904l0.875,1l-0.125,1.906l-1.125,0.75l0.75,1.125l1.53,0.75l1.25,3.438l2.656,2.625l0.625,1.406l1.281,1.75l1.125,0.781l1,1.125
	l0.656,1.375l1,1.031l2.78,4.529l-2.655,0.5l-0.5,0.656v0.625l1.625,0.375l3.28-0.125l0.625,0.125l3.313,3.531l1.375,0.75
	l2.281,2.531l0.625,1.404l3.905,3.281l1.507,0.756"/>
<path id="path4308" sodipodi:nodetypes="cssssssssssssssssssssssssssssssssssc" fill="#EEFFAA" d="M343.326,632.582l0.505,3.283
	l3.03,3.029l-2.02,4.547l10.102,1.514l1.01,2.779l2.021,2.775l2.523,1.264l2.525-1.516l1.263-2.523l4.546-3.537l2.021,1.768
	l4.546,1.518l0.758-2.525l3.535-4.293l-2.021-2.02l-0.758-3.029l-3.028-0.76l-1.265-2.523l-2.271-1.516l-2.777,1.01l-2.021-1.768
	l-1.77-2.525l-2.523-1.264l-3.031,0.76l-7.07,5.051l-3.031-0.758L343.326,632.582L343.326,632.582L343.326,632.582z"/>
<path id="path3219_1_" fill="#EEFFAA" d="M60.058,1067.781l1.114-0.697l1.299,0.047l1.995,1.207l2.228,0.51l0.881,0.883l1.114,2.273
	l-2.181-0.139l-2.97-0.883l-2.831-0.928l-1.392-0.928l1.16-0.094l2.088,1.254l2.831-0.418l-0.604-0.975l-2.784-0.465l-0.696-0.371
	l-1.346,0.232L60.058,1067.781L60.058,1067.781z"/>
<path id="path3221_1_" fill="#EEFFAA" d="M61.711,1129.571l3.002-0.965l1.823-0.16l0.027,0.643l-2.788,1.555l-2.332-0.188
	L61.711,1129.571L61.711,1129.571z"/>
<g id="g4330" transform="translate(15.390386,49.491395)">
	<path id="path2643_1_" fill="#EEFFAA" d="M68.004,276.45l-0.827,0.552l-0.644,0.734l-2.481-0.366l-0.92,0.46l-0.459,1.012v2.758
		l-0.46,0.919l-0.092,1.287l-0.827,0.644h-1.379l-0.919,0.459l0.275,1.38l0.644,0.919l-0.46,1.013l-0.827,0.826l-1.011,0.367h-0.368
		l0.644,1.104l2.574,0.184l0.459,1.195l1.287-0.092l2.022-2.666l1.103-0.275l1.195,0.275l0.552,0.827l1.011-0.46l0.553-0.92
		l-0.093-1.285l0.553-0.921l2.665-0.092l1.194-0.367l0.645-0.734l1.471-4.229l-0.184-1.194l-3.034-1.839l-0.735-0.826l-0.919-0.46
		l-1.287-0.275L68.004,276.45L68.004,276.45z"/>
	<path id="path2645_1_" fill="#EEFFAA" d="M40.336,294.925l0.46,1.104l0.645,0.919l-0.368,0.735l1.379,0.092l0.919,0.46l0.827-0.552
		l-0.185-0.645l-1.379-0.093l-0.644-2.113L40.336,294.925L40.336,294.925L40.336,294.925z"/>
	<path id="path2647_1_" fill="#EEFFAA" d="M38.957,298.694l-0.644,0.827l2.298,0.552l0.734-0.552L38.957,298.694L38.957,298.694z"/>
	
		<path id="path2651_1_" sodipodi:nodetypes="csssssssssssssssssssssssscsssssssssssssssssssscssssssssssscssssssssssssssssssssscssssssssscsssssssssssssssssscsssssscsssssssssscsssssssssssscsssssssssssssscsssssssssssscssssssssssssssc" fill="#EEFFAA" d="
		M127.017,258.525l-0.366-1.287l-0.645-0.919v-1.379l-0.644-0.827l0.552-0.644h-1.195l0.092-0.735l-0.919-0.092l-0.734,0.185
		l-0.368-0.645l-1.563,1.747l-0.459-0.92l0.919-0.552l-0.826-0.553l-0.92,0.553l-0.552,0.826l1.012,0.827l0.734,1.012l-0.367,1.104
		l-1.194,0.184l-1.654,1.195l-1.195,0.185l-1.194-0.093l-0.459,0.275l-0.276,0.92l0.46,0.734l0.092,1.286l1.287-1.38l1.011,0.46
		h1.38l-0.093,0.735h-1.379l0.919,0.827l0.46,0.919l-0.827,0.552v1.379l-0.919-0.273l-1.194-1.655l-0.735-0.644l-0.184,0.919
		l0.552,0.919v0.274l-0.92,1.013l-0.919,0.553l-0.552,0.826l-0.92,0.459h-1.379l1.287,1.194l-0.368,0.46l0.553,2.392l-0.275,0.733
		h-0.552l-1.746,1.38l-0.552,0.919l-8.089-1.104l-10.848-7.813l-1.194-0.275l-0.367-0.275l-0.645,0.735l-1.287,0.184l-2.113,2.114
		l-1.195,0.186l-2.021,3.77l2.206,1.286l1.194,0.275l-0.184-0.919l-0.735-0.828l0.919-0.459l2.758,0.093l0.46-1.104l0.919-0.551
		l0.735,0.827l-0.092,1.746l-0.735,0.733l-2.39,0.461l-0.46,1.193v1.839l0.367,0.275l0.734,1.194l0.736,2.391v2.758l0.184,0.735
		l1.563,0.184l0.644,0.735l-0.092,1.286l-1.012,0.368l-0.645-1.747l-0.459,0.919l-2.206,0.275l-0.092,2.298l-0.828,0.646
		l-4.044,0.092l-0.552-0.46l0.092-1.286l-0.827,1.654l-1.103-0.186l-0.276,0.92l1.013,0.734l0.919,0.367l1.653,2.206l1.472,1.194
		l0.552,1.013l2.666,0.184l1.011,0.459l0.552,1.104l1.287,0.46l1.472,0.184l2.021,1.287l0.46-0.828l1.563-0.274l0.367-1.012
		l0.735-0.644l0.551-2.392l3.033-4.318l0.736-0.646l0.643-0.92l0.828-0.643l0.184-0.46l1.194-0.186l0.828-0.552l1.194-0.275
		l0.734-0.644l0.92-0.46l1.286-0.092l2.022-0.827l7.904-0.552l1.472,0.552l1.653,1.379l0.92,0.459h1.379l2.299,0.92l2.39,2.391
		l-0.092,1.104l-0.645,0.827l-0.826,0.552l-0.553,0.185l1.104,0.46h1.379l1.012-0.366l0.827-0.646l1.194-0.274l0.644-0.92
		l2.298-0.553l0.368-1.011l-0.46-0.827l0.276-1.012l0.827-0.367l1.379,0.275l0.644-0.735l0.367-0.827l-1.379-1.653l-0.185-1.013
		l1.84-1.103l1.011-0.092l0.552,0.552l1.011-0.828l-0.366-0.827l0.092-0.919l0.459-0.734l-0.919-0.46h-1.379l-0.275-0.734
		l-0.735-0.735l-0.734-3.399v-2.205l1.471-0.921l0.367-1.104l-0.645-0.734l-2.021,0.734l-0.92-0.274l-0.459-0.92l-0.552-2.299
		l0.184-1.194l-0.644-0.552l-0.92-0.46l-0.184-3.399L127.017,258.525L127.017,258.525L127.017,258.525z"/>
	<path id="path2655_1_" fill="#EEFFAA" d="M129.314,253.561l-1.104,0.368l0.459,0.459h1.379L129.314,253.561L129.314,253.561
		L129.314,253.561z"/>
	<path id="path2657_1_" fill="#EEFFAA" d="M135.749,288.674l-0.552,0.552l1.287-0.092L135.749,288.674L135.749,288.674z"/>
</g>
<g id="g4342_1_" transform="translate(927.47728,114.37901)">
	<path id="path4338_1_" fill="#EEFFAA" d="M-710.304,169.69l-0.536,2.5l1.43,1.43l1.606,0.714v-2.679l-1.25-1.43L-710.304,169.69
		L-710.304,169.69z"/>
	<path id="path4340_1_" fill="#EEFFAA" d="M-703.34,173.975l-1.25,2.145l1.786,1.07l1.786-1.25l-1.25-1.43L-703.34,173.975
		L-703.34,173.975z"/>
</g>
<g id="g4313_1_" transform="translate(28.007306,18.540465)">
	<path id="path2671_1_" fill="#EEFFAA" d="M31.164,178.912h5.963l-1.987,3.181l-4.373-0.396L31.164,178.912L31.164,178.912z"/>
	<path id="path2673_1_" sodipodi:nodetypes="cssssssc" fill="#EEFFAA" d="M46.27,180.899l-3.976,9.541l1.59-0.397l7.553-5.167
		l-3.975-1.59L46.27,180.899L46.27,180.899z"/>
	<path id="path2675_1_" sodipodi:nodetypes="csssssssssssc" fill="#EEFFAA" d="M26.395,111.736l-0.396,4.372l0.795,4.771
		l-0.795,2.782l6.359,0.795l4.771-1.192l6.359-5.167l-2.782-3.577l-3.18,2.782l-4.372,0.795l-2.387-3.181L26.395,111.736
		L26.395,111.736z"/>
	<path id="path2677_1_" fill="#EEFFAA" d="M45.872,114.12l1.192,2.386L45.872,114.12L45.872,114.12z"/>
	<path id="path2679_1_" sodipodi:nodetypes="cssssssssssssc" fill="#EEFFAA" d="M44.282,96.233l0.396,9.541l0.795-4.374l3.181-1.987
		l4.77-0.396l3.578-2.386l2.782,3.181l0.795-1.987l-3.577-5.963L44.282,96.233L44.282,96.233z"/>
	<path id="path2681_1_" sodipodi:nodetypes="csssc" fill="#EEFFAA" d="M50.642,75.563l-2.385,4.77l1.7,0.716l1.877-1.511
		L50.642,75.563L50.642,75.563L50.642,75.563z"/>
	<path id="path2683_1_" fill="#EEFFAA" d="M56.604,86.296l-2.782,2.782l3.976-0.795L56.604,86.296L56.604,86.296z"/>
	<path id="path2685_1_" fill="#EEFFAA" d="M221.565,45.553l-0.101,1.49l-0.795,0.896l-0.396,1.191l1.191,0.795l4.074-1.292
		l1.49-2.187l1.192,0.299l1.291-0.396l-0.596-1.095l-1.392-0.496l-1.987-1.789l-1.091-0.199l-0.696,1.688l-0.993,1.192
		L221.565,45.553L221.565,45.553L221.565,45.553z"/>
	<path id="path2687_1_" fill="#EEFFAA" d="M218.385,41.18L216,43.268l0.199,0.694l4.174,0.299l-0.199-1.191L218.385,41.18
		L218.385,41.18z"/>
</g>
</svg>
